<svg width="284" height="189" viewBox="0 0 284 189" fill="none" xmlns="http://www.w3.org/2000/svg">
<rect width="284" height="189" fill="white"/>
<rect x="106" y="89" width="77" height="82" fill="#D9D9D9"/>
<rect x="106" y="19" width="77" height="82" fill="#D9D9D9"/>
<g filter="url(#filter0_d_7_390)">
<path fill-rule="evenodd" clip-rule="evenodd" d="M183 89H106V171H183V155H164C158.477 155 154 150.523 154 145V136H151.708C150.06 137.841 147.666 139 145 139C140.029 139 136 134.971 136 130C136 125.029 140.029 121 145 121C148.12 121 150.87 122.588 152.484 125H154V115C154 109.477 158.477 105 164 105H183V89Z" fill="#4285F4"/>
<path fill-rule="evenodd" clip-rule="evenodd" d="M106.12 101.112L183.12 101L183 19L106 19.1125L106.023 35.1125L125.023 35.0847C130.546 35.0767 135.03 39.5473 135.038 45.0701L135.051 54.0701L137.343 54.0668C138.988 52.2231 141.381 51.0609 144.047 51.057C149.017 51.0497 153.053 55.0732 153.06 60.0438C153.067 65.0144 149.044 69.0497 144.073 69.0569C140.953 69.0615 138.201 67.4775 136.583 65.0679L135.067 65.0701L135.082 75.0701C135.09 80.5929 130.619 85.0766 125.096 85.0847L106.096 85.1125L106.12 101.112Z" fill="#4285F4"/>
</g>
<path d="M106 7H183V30H106V7Z" fill="#4285F4"/>
<path d="M111.79 11.88H114.1C115.31 11.88 116.2 12.16 116.77 12.72C117.35 13.28 117.63 14.17 117.63 15.38C117.63 16.58 117.37 17.48 116.83 18.09C116.3 18.7 115.45 19 114.28 19H111.79V11.88ZM112.72 12.69L112.73 18.2H114.16C115.05 18.2 115.7 17.98 116.1 17.54C116.5 17.1 116.7 16.42 116.7 15.49C116.7 14.52 116.51 13.81 116.11 13.36C115.72 12.92 115.05 12.69 114.11 12.69H112.72ZM123.251 18.32V18.99C123.071 19.05 122.881 19.09 122.671 19.09C122.181 19.09 121.931 18.83 121.921 18.33C121.431 18.87 120.811 19.15 120.051 19.15C119.541 19.15 119.141 19.02 118.841 18.76C118.541 18.5 118.401 18.14 118.401 17.69C118.401 16.77 119.011 16.23 120.231 16.08C120.311 16.06 120.421 16.05 120.581 16.04C121.161 15.97 121.511 15.89 121.651 15.81C121.801 15.7 121.881 15.52 121.881 15.26C121.881 14.69 121.491 14.41 120.711 14.41C120.311 14.41 120.001 14.49 119.801 14.65C119.591 14.81 119.471 15.08 119.431 15.46L118.601 15.46C118.611 14.9 118.811 14.47 119.191 14.17C119.571 13.86 120.091 13.71 120.761 13.71C121.481 13.71 122.021 13.87 122.381 14.21C122.491 14.31 122.571 14.45 122.631 14.63C122.681 14.8 122.711 14.94 122.721 15.05C122.721 15.16 122.731 15.33 122.731 15.55C122.731 15.8 122.721 16.18 122.711 16.69C122.691 17.21 122.691 17.59 122.691 17.84C122.691 18.03 122.711 18.16 122.761 18.24C122.811 18.32 122.901 18.35 123.041 18.35C123.091 18.35 123.161 18.34 123.251 18.32ZM121.881 16.33C121.821 16.37 121.751 16.41 121.691 16.45C121.621 16.48 121.531 16.51 121.431 16.53C121.331 16.55 121.261 16.56 121.221 16.57C121.181 16.58 121.101 16.59 120.961 16.61C120.821 16.63 120.741 16.64 120.741 16.64C120.531 16.66 120.391 16.68 120.331 16.69C120.271 16.7 120.151 16.73 119.971 16.78C119.791 16.82 119.671 16.88 119.601 16.94C119.521 17 119.451 17.08 119.381 17.2C119.311 17.32 119.281 17.46 119.281 17.62C119.281 17.88 119.371 18.09 119.551 18.25C119.731 18.4 119.991 18.48 120.311 18.48C120.711 18.48 121.081 18.36 121.401 18.12C121.721 17.88 121.881 17.59 121.881 17.27V16.33ZM126.262 13.84V14.54L125.232 14.54V17.55C125.232 17.72 125.232 17.83 125.232 17.88C125.232 17.94 125.252 18.01 125.292 18.1C125.322 18.19 125.382 18.25 125.462 18.27C125.542 18.3 125.652 18.31 125.802 18.31C125.922 18.31 126.082 18.3 126.262 18.28V19.01C126.022 19.04 125.802 19.05 125.612 19.05C125.372 19.05 125.172 19.03 125.012 18.97C124.852 18.92 124.722 18.86 124.642 18.79C124.562 18.73 124.502 18.61 124.462 18.44C124.422 18.27 124.392 18.13 124.392 18.01C124.382 17.89 124.382 17.7 124.382 17.42V17.38V17.33V17.28V14.54H123.512V13.84H124.382V12.31H125.232V13.84L126.262 13.84ZM131.776 18.32V18.99C131.596 19.05 131.406 19.09 131.196 19.09C130.706 19.09 130.456 18.83 130.446 18.33C129.956 18.87 129.336 19.15 128.576 19.15C128.066 19.15 127.666 19.02 127.366 18.76C127.066 18.5 126.926 18.14 126.926 17.69C126.926 16.77 127.536 16.23 128.756 16.08C128.836 16.06 128.946 16.05 129.106 16.04C129.686 15.97 130.036 15.89 130.176 15.81C130.326 15.7 130.406 15.52 130.406 15.26C130.406 14.69 130.016 14.41 129.236 14.41C128.836 14.41 128.526 14.49 128.326 14.65C128.116 14.81 127.996 15.08 127.956 15.46H127.126C127.136 14.9 127.336 14.47 127.716 14.17C128.096 13.86 128.616 13.71 129.286 13.71C130.006 13.71 130.546 13.87 130.906 14.21C131.016 14.31 131.096 14.45 131.156 14.63C131.206 14.8 131.236 14.94 131.246 15.05C131.246 15.16 131.256 15.33 131.256 15.55C131.256 15.8 131.246 16.18 131.236 16.69C131.216 17.21 131.216 17.59 131.216 17.84C131.216 18.03 131.236 18.16 131.286 18.24C131.336 18.32 131.426 18.35 131.566 18.35C131.616 18.35 131.686 18.34 131.776 18.32ZM130.406 16.33C130.346 16.37 130.276 16.41 130.216 16.45C130.146 16.48 130.056 16.51 129.956 16.53C129.856 16.55 129.786 16.56 129.746 16.57C129.706 16.58 129.626 16.59 129.486 16.61C129.346 16.63 129.266 16.64 129.266 16.64C129.056 16.66 128.916 16.68 128.856 16.69C128.796 16.7 128.676 16.73 128.496 16.78C128.316 16.82 128.196 16.88 128.126 16.94C128.046 17 127.976 17.08 127.906 17.2C127.836 17.32 127.806 17.46 127.806 17.62C127.806 17.88 127.896 18.09 128.076 18.25C128.256 18.4 128.516 18.48 128.836 18.48C129.236 18.48 129.606 18.36 129.926 18.12C130.246 17.88 130.406 17.59 130.406 17.27V16.33ZM138.758 16.31C138.678 17.21 138.358 17.92 137.817 18.42C137.278 18.92 136.558 19.17 135.668 19.17C134.658 19.17 133.858 18.84 133.268 18.17C132.668 17.5 132.378 16.59 132.378 15.45C132.378 14.39 132.668 13.5 133.268 12.79C133.868 12.08 134.688 11.72 135.748 11.72C136.498 11.72 137.158 11.93 137.728 12.33C138.308 12.74 138.628 13.3 138.688 14.02H137.748C137.648 13.56 137.408 13.19 137.048 12.93C136.688 12.67 136.248 12.53 135.718 12.53C134.928 12.53 134.328 12.81 133.928 13.37C133.528 13.93 133.328 14.62 133.328 15.44C133.328 16.35 133.538 17.06 133.968 17.58C134.388 18.1 134.978 18.36 135.718 18.36C136.318 18.36 136.808 18.19 137.168 17.84C137.528 17.49 137.738 16.98 137.817 16.31H138.758ZM142.054 13.69C142.834 13.69 143.434 13.93 143.874 14.41C144.304 14.88 144.524 15.54 144.524 16.39C144.524 17.27 144.304 17.95 143.874 18.43C143.434 18.92 142.824 19.16 142.044 19.16C141.254 19.16 140.634 18.92 140.194 18.44C139.744 17.96 139.524 17.3 139.524 16.44C139.524 15.6 139.744 14.93 140.204 14.43C140.654 13.94 141.274 13.69 142.054 13.69ZM142.034 14.41C141.534 14.41 141.134 14.59 140.844 14.95C140.544 15.32 140.404 15.81 140.404 16.42C140.404 17.06 140.544 17.55 140.834 17.91C141.124 18.27 141.534 18.44 142.054 18.44C142.554 18.44 142.944 18.26 143.224 17.9C143.504 17.54 143.654 17.05 143.654 16.41C143.654 15.8 143.504 15.31 143.214 14.95C142.924 14.59 142.534 14.41 142.034 14.41ZM146.336 13.84V14.64C146.756 14.02 147.346 13.7 148.096 13.7C148.696 13.7 149.136 13.86 149.406 14.18C149.676 14.5 149.816 14.96 149.816 15.57V19H148.966V15.96C148.966 15.71 148.956 15.51 148.936 15.37C148.916 15.23 148.876 15.07 148.816 14.91C148.746 14.75 148.636 14.63 148.476 14.55C148.316 14.48 148.106 14.44 147.856 14.44C146.876 14.44 146.386 15.06 146.386 16.3V19H145.536V13.84H146.336ZM150.593 13.84H151.543L153.003 18.17L154.423 13.84H155.313L153.423 19H152.513L150.593 13.84ZM160.503 17.37C160.243 18.57 159.493 19.17 158.253 19.17C157.493 19.17 156.893 18.94 156.463 18.46C156.033 17.99 155.823 17.33 155.823 16.49C155.823 15.66 156.043 14.99 156.483 14.47C156.923 13.95 157.503 13.69 158.223 13.69C159.013 13.69 159.603 13.96 159.983 14.5C160.363 15.04 160.563 15.71 160.563 16.53V16.65H156.683L156.673 16.71C156.673 17.26 156.813 17.69 157.103 18C157.383 18.32 157.783 18.47 158.283 18.47C158.653 18.47 158.943 18.39 159.163 18.21C159.383 18.04 159.553 17.76 159.673 17.37H160.503ZM159.683 15.96C159.643 15.47 159.493 15.09 159.233 14.81C158.973 14.53 158.623 14.39 158.203 14.39C157.783 14.39 157.443 14.53 157.173 14.81C156.893 15.09 156.733 15.48 156.683 15.96H159.683ZM164.154 13.72L164.144 14.61C164.084 14.6 164.014 14.6 163.924 14.6C163.654 14.6 163.414 14.64 163.214 14.72C163.014 14.8 162.864 14.91 162.744 15.04C162.624 15.18 162.534 15.34 162.454 15.54C162.384 15.74 162.334 15.94 162.314 16.14C162.294 16.34 162.284 16.57 162.284 16.82V19H161.434V13.84L162.244 13.84V14.95C162.584 14.13 163.214 13.72 164.154 13.72ZM167.004 13.84V14.54H165.974V17.55C165.974 17.72 165.974 17.83 165.974 17.88C165.974 17.94 165.994 18.01 166.034 18.1C166.064 18.19 166.124 18.25 166.204 18.27C166.284 18.3 166.394 18.31 166.544 18.31C166.664 18.31 166.824 18.3 167.004 18.28V19.01C166.764 19.04 166.544 19.05 166.354 19.05C166.114 19.05 165.914 19.03 165.754 18.97C165.594 18.92 165.464 18.86 165.384 18.79C165.304 18.73 165.244 18.61 165.204 18.44C165.164 18.27 165.134 18.13 165.134 18.01C165.124 17.89 165.124 17.7 165.124 17.42V17.38V17.33V17.28V14.54H164.254V13.84H165.124V12.31H165.974V13.84H167.004ZM172.359 17.37C172.099 18.57 171.349 19.17 170.109 19.17C169.349 19.17 168.749 18.94 168.319 18.46C167.889 17.99 167.679 17.33 167.679 16.49C167.679 15.66 167.899 14.99 168.339 14.47C168.779 13.95 169.359 13.69 170.079 13.69C170.869 13.69 171.459 13.96 171.839 14.5C172.219 15.04 172.419 15.71 172.419 16.53V16.65L168.539 16.65L168.529 16.71C168.529 17.26 168.669 17.69 168.959 18C169.239 18.32 169.639 18.47 170.139 18.47C170.509 18.47 170.799 18.39 171.019 18.21C171.239 18.04 171.409 17.76 171.529 17.37H172.359ZM171.539 15.96C171.499 15.47 171.349 15.09 171.089 14.81C170.829 14.53 170.479 14.39 170.059 14.39C169.639 14.39 169.299 14.53 169.029 14.81C168.749 15.09 168.589 15.48 168.539 15.96L171.539 15.96ZM176.01 13.72L176 14.61C175.94 14.6 175.87 14.6 175.78 14.6C175.51 14.6 175.27 14.64 175.07 14.72C174.87 14.8 174.72 14.91 174.6 15.04C174.48 15.18 174.39 15.34 174.31 15.54C174.24 15.74 174.19 15.94 174.17 16.14C174.15 16.34 174.14 16.57 174.14 16.82V19H173.29V13.84H174.1V14.95C174.44 14.13 175.07 13.72 176.01 13.72Z" fill="white"/>
<g filter="url(#filter1_d_7_390)">
<path d="M133.5 73C133.5 78.2467 129.247 82.5 124 82.5L58.5 82.5L58.5 38.5L124 38.5C129.247 38.5 133.5 42.7533 133.5 48L133.5 73Z" fill="white" stroke="#D9D9D9"/>
<circle cx="144" cy="60" r="7" transform="rotate(-180 144 60)" fill="white"/>
<circle cx="144" cy="60" r="7.5" transform="rotate(-180 144 60)" stroke="#8C8787" stroke-opacity="0.3"/>
<mask id="path-10-inside-1_7_390" fill="white">
<path d="M138 63C138 63.5523 137.552 64 137 64L133 64L133 56L137 56C137.552 56 138 56.4477 138 57L138 63Z"/>
</mask>
<path d="M138 63C138 63.5523 137.552 64 137 64L133 64L133 56L137 56C137.552 56 138 56.4477 138 57L138 63Z" fill="white"/>
<path d="M138 63C138 64.1046 137.105 65 136 65L133 65L133 63L137 63C137.552 63 138 63 138 63ZM133 55L136 55C137.105 55 138 55.8954 138 57C138 57 137.552 57 137 57L133 57L133 55ZM138 56L138 64L138 56ZM133 64L133 56L133 64Z" fill="#8C8787" fill-opacity="0.3" mask="url(#path-10-inside-1_7_390)"/>
</g>
<g filter="url(#filter2_d_7_390)">
<path d="M155.5 117C155.5 111.753 159.753 107.5 165 107.5H230.5V151.5H165C159.753 151.5 155.5 147.247 155.5 142V117Z" fill="white" stroke="#D9D9D9"/>
<circle cx="145" cy="130" r="7" fill="white"/>
<circle cx="145" cy="130" r="7.5" stroke="#8C8787" stroke-opacity="0.3"/>
<mask id="path-15-inside-2_7_390" fill="white">
<path d="M151 127C151 126.448 151.448 126 152 126H156V134H152C151.448 134 151 133.552 151 133V127Z"/>
</mask>
<path d="M151 127C151 126.448 151.448 126 152 126H156V134H152C151.448 134 151 133.552 151 133V127Z" fill="white"/>
<path d="M151 127C151 125.895 151.895 125 153 125H156V127H152C151.448 127 151 127 151 127ZM156 135H153C151.895 135 151 134.105 151 133C151 133 151.448 133 152 133H156V135ZM151 134V126V134ZM156 126V134V126Z" fill="#8C8787" fill-opacity="0.3" mask="url(#path-15-inside-2_7_390)"/>
</g>
<path d="M150.5 59.5H164" stroke="white"/>
<line x1="163.5" y1="60" x2="163.5" y2="93" stroke="white"/>
<path d="M164 93.5L125.5 93.5" stroke="white"/>
<path d="M126 94L126 131" stroke="white"/>
<path d="M139 130.5H126" stroke="white"/>
<path d="M81.79 56.88H84.92C86.51 56.88 87.31 57.54 87.31 58.85C87.31 59.27 87.19 59.63 86.97 59.95C86.75 60.27 86.45 60.48 86.09 60.58C86.33 60.64 86.52 60.71 86.67 60.81C86.81 60.91 86.92 61.05 86.99 61.23C87.05 61.41 87.1 61.57 87.12 61.71C87.14 61.85 87.15 62.06 87.17 62.33C87.17 62.36 87.17 62.43 87.18 62.53C87.18 62.63 87.19 62.7 87.19 62.74C87.19 62.78 87.19 62.84 87.2 62.93C87.21 63.03 87.22 63.1 87.23 63.14C87.23 63.19 87.24 63.25 87.26 63.33C87.27 63.41 87.29 63.48 87.31 63.53C87.33 63.58 87.35 63.64 87.38 63.7C87.4 63.76 87.43 63.82 87.47 63.87C87.5 63.92 87.54 63.96 87.58 64H86.5C86.45 63.94 86.41 63.85 86.38 63.75C86.35 63.65 86.33 63.54 86.32 63.4C86.3 63.26 86.29 63.15 86.29 63.07C86.28 62.99 86.27 62.86 86.27 62.7C86.26 62.54 86.26 62.45 86.26 62.43C86.22 61.83 86.1 61.42 85.88 61.22C85.66 61.02 85.24 60.92 84.6 60.92H82.73V64H81.79V56.88ZM82.73 57.68V60.17H84.5C84.72 60.17 84.9 60.17 85.05 60.15C85.2 60.14 85.37 60.11 85.55 60.06C85.73 60.02 85.87 59.95 85.98 59.86C86.09 59.78 86.18 59.65 86.26 59.49C86.33 59.33 86.37 59.14 86.37 58.91C86.37 58.43 86.22 58.11 85.93 57.94C85.64 57.77 85.25 57.68 84.75 57.68H82.73ZM92.8957 62.37C92.6357 63.57 91.8857 64.17 90.6457 64.17C89.8857 64.17 89.2857 63.94 88.8557 63.46C88.4257 62.99 88.2157 62.33 88.2157 61.49C88.2157 60.66 88.4357 59.99 88.8757 59.47C89.3157 58.95 89.8957 58.69 90.6157 58.69C91.4057 58.69 91.9957 58.96 92.3757 59.5C92.7557 60.04 92.9557 60.71 92.9557 61.53V61.65H89.0757L89.0657 61.71C89.0657 62.26 89.2057 62.69 89.4957 63C89.7757 63.32 90.1757 63.47 90.6757 63.47C91.0457 63.47 91.3357 63.39 91.5557 63.21C91.7757 63.04 91.9457 62.76 92.0657 62.37H92.8957ZM92.0757 60.96C92.0357 60.47 91.8857 60.09 91.6257 59.81C91.3657 59.53 91.0157 59.39 90.5957 59.39C90.1757 59.39 89.8357 59.53 89.5657 59.81C89.2857 60.09 89.1257 60.48 89.0757 60.96H92.0757ZM98.4268 63.32V63.99C98.2468 64.05 98.0568 64.09 97.8468 64.09C97.3568 64.09 97.1068 63.83 97.0968 63.33C96.6068 63.87 95.9868 64.15 95.2268 64.15C94.7168 64.15 94.3168 64.02 94.0168 63.76C93.7168 63.5 93.5768 63.14 93.5768 62.69C93.5768 61.77 94.1868 61.23 95.4068 61.08C95.4868 61.06 95.5968 61.05 95.7568 61.04C96.3368 60.97 96.6868 60.89 96.8268 60.81C96.9768 60.7 97.0568 60.52 97.0568 60.26C97.0568 59.69 96.6668 59.41 95.8868 59.41C95.4868 59.41 95.1768 59.49 94.9768 59.65C94.7668 59.81 94.6468 60.08 94.6068 60.46H93.7768C93.7868 59.9 93.9868 59.47 94.3668 59.17C94.7468 58.86 95.2668 58.71 95.9368 58.71C96.6568 58.71 97.1968 58.87 97.5568 59.21C97.6668 59.31 97.7468 59.45 97.8068 59.63C97.8568 59.8 97.8868 59.94 97.8968 60.05C97.8968 60.16 97.9068 60.33 97.9068 60.55C97.9068 60.8 97.8968 61.18 97.8868 61.69C97.8668 62.21 97.8668 62.59 97.8668 62.84C97.8668 63.03 97.8868 63.16 97.9368 63.24C97.9868 63.32 98.0768 63.35 98.2168 63.35C98.2668 63.35 98.3368 63.34 98.4268 63.32ZM97.0568 61.33C96.9968 61.37 96.9268 61.41 96.8668 61.45C96.7968 61.48 96.7068 61.51 96.6068 61.53C96.5068 61.55 96.4368 61.56 96.3968 61.57C96.3568 61.58 96.2768 61.59 96.1368 61.61C95.9968 61.63 95.9168 61.64 95.9168 61.64C95.7068 61.66 95.5668 61.68 95.5068 61.69C95.4468 61.7 95.3268 61.73 95.1468 61.78C94.9668 61.82 94.8468 61.88 94.7768 61.94C94.6968 62 94.6268 62.08 94.5568 62.2C94.4868 62.32 94.4568 62.46 94.4568 62.62C94.4568 62.88 94.5468 63.09 94.7268 63.25C94.9068 63.4 95.1668 63.48 95.4868 63.48C95.8868 63.48 96.2568 63.36 96.5768 63.12C96.8968 62.88 97.0568 62.59 97.0568 62.27V61.33ZM103.878 56.88V64H103.078V63.24C102.748 63.84 102.178 64.14 101.378 64.14C100.638 64.14 100.058 63.9 99.6279 63.41C99.1979 62.92 98.9879 62.25 98.9879 61.41C98.9879 60.63 99.1879 59.99 99.5879 59.47C99.9879 58.95 100.578 58.69 101.338 58.69C102.078 58.69 102.638 58.97 103.028 59.53V56.88H103.878ZM101.448 59.42C100.958 59.42 100.568 59.6 100.288 59.95C100.008 60.31 99.8679 60.79 99.8679 61.39C99.8679 62.02 100.008 62.52 100.298 62.89C100.588 63.26 100.978 63.44 101.468 63.44C101.958 63.44 102.348 63.27 102.628 62.91C102.908 62.55 103.048 62.06 103.048 61.42C103.048 60.86 102.908 60.38 102.648 60C102.388 59.62 101.988 59.42 101.448 59.42ZM109.566 62.37C109.306 63.57 108.556 64.17 107.316 64.17C106.556 64.17 105.956 63.94 105.526 63.46C105.096 62.99 104.886 62.33 104.886 61.49C104.886 60.66 105.106 59.99 105.546 59.47C105.986 58.95 106.566 58.69 107.286 58.69C108.076 58.69 108.666 58.96 109.046 59.5C109.426 60.04 109.626 60.71 109.626 61.53V61.65H105.746L105.736 61.71C105.736 62.26 105.876 62.69 106.166 63C106.446 63.32 106.846 63.47 107.346 63.47C107.716 63.47 108.006 63.39 108.226 63.21C108.446 63.04 108.616 62.76 108.736 62.37H109.566ZM108.746 60.96C108.706 60.47 108.556 60.09 108.296 59.81C108.036 59.53 107.686 59.39 107.266 59.39C106.846 59.39 106.506 59.53 106.236 59.81C105.956 60.09 105.796 60.48 105.746 60.96H108.746ZM113.217 58.72L113.207 59.61C113.147 59.6 113.077 59.6 112.987 59.6C112.717 59.6 112.477 59.64 112.277 59.72C112.077 59.8 111.927 59.91 111.807 60.04C111.687 60.18 111.597 60.34 111.517 60.54C111.447 60.74 111.397 60.94 111.377 61.14C111.357 61.34 111.347 61.57 111.347 61.82V64H110.497V58.84H111.307V59.95C111.647 59.13 112.277 58.72 113.217 58.72Z" fill="black"/>
<path d="M50.1768 60.1768C50.2744 60.0791 50.2744 59.9209 50.1768 59.8232L48.5858 58.2322C48.4882 58.1346 48.3299 58.1346 48.2322 58.2322C48.1346 58.3299 48.1346 58.4882 48.2322 58.5858L49.6464 60L48.2322 61.4142C48.1346 61.5118 48.1346 61.6701 48.2322 61.7678C48.3299 61.8654 48.4882 61.8654 48.5858 61.7678L50.1768 60.1768ZM5 60.25L50 60.25L50 59.75L5 59.75L5 60.25Z" fill="black"/>
<path d="M261 131L261.25 131L261.25 130.75L261 130.75L261 131ZM260.823 170.177C260.921 170.274 261.079 170.274 261.177 170.177L262.768 168.586C262.865 168.488 262.865 168.33 262.768 168.232C262.67 168.135 262.512 168.135 262.414 168.232L261 169.646L259.586 168.232C259.488 168.135 259.33 168.135 259.232 168.232C259.135 168.33 259.135 168.488 259.232 168.586L260.823 170.177ZM237 131.25L261 131.25L261 130.75L237 130.75L237 131.25ZM260.75 131L260.75 170L261.25 170L261.25 131L260.75 131Z" fill="black"/>
<path d="M10.48 49.88V50.7H6.74V52.92H10.04V53.71H6.74V57H5.8V49.88H10.48ZM12.2822 49.88V50.92H11.4222V49.88H12.2822ZM12.2822 51.84V57H11.4222V51.84H12.2822ZM14.499 49.88V57H13.639V49.88H14.499ZM20.2258 55.37C19.9658 56.57 19.2158 57.17 17.9758 57.17C17.2158 57.17 16.6158 56.94 16.1858 56.46C15.7558 55.99 15.5458 55.33 15.5458 54.49C15.5458 53.66 15.7658 52.99 16.2058 52.47C16.6458 51.95 17.2258 51.69 17.9458 51.69C18.7358 51.69 19.3258 51.96 19.7058 52.5C20.0858 53.04 20.2858 53.71 20.2858 54.53V54.65H16.4058L16.3958 54.71C16.3958 55.26 16.5358 55.69 16.8258 56C17.1058 56.32 17.5058 56.47 18.0058 56.47C18.3758 56.47 18.6658 56.39 18.8858 56.21C19.1058 56.04 19.2758 55.76 19.3958 55.37H20.2258ZM19.4058 53.96C19.3658 53.47 19.2158 53.09 18.9558 52.81C18.6958 52.53 18.3458 52.39 17.9258 52.39C17.5058 52.39 17.1658 52.53 16.8958 52.81C16.6158 53.09 16.4558 53.48 16.4058 53.96H19.4058ZM25.0169 53.34H24.1669C24.1069 52.72 23.6869 52.4 22.9069 52.4C22.5769 52.4 22.3169 52.47 22.1369 52.59C21.9469 52.72 21.8569 52.89 21.8569 53.1C21.8569 53.16 21.8569 53.22 21.8769 53.28C21.8869 53.34 21.9069 53.39 21.9469 53.43C21.9869 53.47 22.0169 53.51 22.0469 53.54C22.0769 53.58 22.1269 53.61 22.1969 53.64C22.2669 53.67 22.3169 53.69 22.3569 53.71C22.3969 53.73 22.4569 53.76 22.5569 53.78C22.6569 53.8 22.7269 53.82 22.7669 53.83C22.8069 53.84 22.8769 53.86 22.9969 53.88C23.1169 53.91 23.1869 53.93 23.2269 53.93C23.4669 53.99 23.6569 54.03 23.7769 54.06C23.8969 54.1 24.0669 54.16 24.2869 54.25C24.5069 54.34 24.6669 54.43 24.7869 54.53C24.8969 54.63 24.9969 54.76 25.0869 54.93C25.1769 55.1 25.2269 55.29 25.2269 55.5C25.2269 56 25.0269 56.41 24.6369 56.71C24.2469 57.01 23.7269 57.16 23.0869 57.16C22.3869 57.16 21.8469 57.01 21.4669 56.7C21.0869 56.4 20.8869 55.95 20.8669 55.37H21.7069C21.7469 56.1 22.2169 56.46 23.1069 56.46C23.4869 56.46 23.7869 56.39 24.0169 56.23C24.2469 56.07 24.3669 55.86 24.3669 55.6C24.3669 55.43 24.3069 55.29 24.1869 55.17C24.0669 55.06 23.9269 54.98 23.7869 54.93C23.6369 54.88 23.4269 54.82 23.1569 54.75C23.1169 54.75 23.0869 54.74 23.0669 54.73C23.0069 54.72 22.8769 54.69 22.6769 54.65C22.4769 54.61 22.3369 54.57 22.2569 54.54C22.1669 54.52 22.0369 54.48 21.8769 54.42C21.7169 54.36 21.5969 54.3 21.5169 54.24C21.4369 54.18 21.3469 54.1 21.2469 54C21.1469 53.9 21.0869 53.79 21.0469 53.66C21.0069 53.53 20.9869 53.38 20.9869 53.21C20.9869 52.75 21.1569 52.38 21.5169 52.1C21.8769 51.83 22.3569 51.69 22.9569 51.69C23.5569 51.69 24.0569 51.84 24.4369 52.12C24.8169 52.41 25.0169 52.82 25.0169 53.34Z" fill="black"/>
<path d="M246.79 175.71C247.87 175.71 248.71 176.05 249.31 176.73C249.91 177.41 250.21 178.29 250.21 179.38C250.21 180.48 249.91 181.39 249.32 182.1C248.72 182.82 247.88 183.17 246.8 183.17C246.24 183.17 245.75 183.07 245.31 182.87C244.87 182.67 244.51 182.4 244.23 182.04C243.95 181.69 243.74 181.29 243.6 180.83C243.46 180.38 243.39 179.89 243.39 179.36C243.39 178.25 243.69 177.36 244.31 176.7C244.93 176.04 245.75 175.71 246.79 175.71ZM246.79 176.53C245.99 176.53 245.38 176.81 244.96 177.37C244.54 177.93 244.32 178.61 244.32 179.43C244.32 180.33 244.55 181.04 245 181.57C245.45 182.1 246.05 182.36 246.8 182.36C247.55 182.36 248.15 182.1 248.6 181.56C249.04 181.03 249.27 180.32 249.27 179.43C249.27 178.55 249.04 177.85 248.59 177.32C248.14 176.8 247.54 176.53 246.79 176.53ZM252.038 177.84V178.64C252.458 178.02 253.048 177.7 253.798 177.7C254.398 177.7 254.838 177.86 255.108 178.18C255.378 178.5 255.518 178.96 255.518 179.57V183H254.668V179.96C254.668 179.71 254.658 179.51 254.638 179.37C254.618 179.23 254.578 179.07 254.518 178.91C254.448 178.75 254.338 178.63 254.178 178.55C254.018 178.48 253.808 178.44 253.558 178.44C252.578 178.44 252.088 179.06 252.088 180.3V183H251.238V177.84H252.038ZM264.228 175.88V183H263.428V182.24C263.098 182.84 262.528 183.14 261.728 183.14C260.988 183.14 260.407 182.9 259.978 182.41C259.548 181.92 259.338 181.25 259.338 180.41C259.338 179.63 259.538 178.99 259.938 178.47C260.338 177.95 260.928 177.69 261.688 177.69C262.428 177.69 262.988 177.97 263.378 178.53V175.88H264.228ZM261.798 178.42C261.308 178.42 260.918 178.6 260.638 178.95C260.358 179.31 260.218 179.79 260.218 180.39C260.218 181.02 260.358 181.52 260.648 181.89C260.938 182.26 261.328 182.44 261.818 182.44C262.308 182.44 262.698 182.27 262.978 181.91C263.258 181.55 263.398 181.06 263.398 180.42C263.398 179.86 263.258 179.38 262.998 179C262.738 178.62 262.338 178.42 261.798 178.42ZM266.405 175.88V176.92H265.545V175.88H266.405ZM266.405 177.84V183H265.545V177.84H266.405ZM271.552 179.34H270.702C270.642 178.72 270.222 178.4 269.442 178.4C269.112 178.4 268.852 178.47 268.672 178.59C268.482 178.72 268.392 178.89 268.392 179.1C268.392 179.16 268.392 179.22 268.412 179.28C268.422 179.34 268.442 179.39 268.482 179.43C268.522 179.47 268.552 179.51 268.582 179.54C268.612 179.58 268.662 179.61 268.732 179.64C268.802 179.67 268.852 179.69 268.892 179.71C268.932 179.73 268.992 179.76 269.092 179.78C269.192 179.8 269.262 179.82 269.302 179.83C269.342 179.84 269.412 179.86 269.532 179.88C269.652 179.91 269.722 179.93 269.762 179.93C270.002 179.99 270.192 180.03 270.312 180.06C270.432 180.1 270.602 180.16 270.822 180.25C271.042 180.34 271.202 180.43 271.322 180.53C271.432 180.63 271.532 180.76 271.622 180.93C271.712 181.1 271.762 181.29 271.762 181.5C271.762 182 271.562 182.41 271.172 182.71C270.782 183.01 270.262 183.16 269.622 183.16C268.922 183.16 268.382 183.01 268.002 182.7C267.622 182.4 267.422 181.95 267.402 181.37H268.242C268.282 182.1 268.752 182.46 269.642 182.46C270.022 182.46 270.322 182.39 270.552 182.23C270.782 182.07 270.902 181.86 270.902 181.6C270.902 181.43 270.842 181.29 270.722 181.17C270.602 181.06 270.462 180.98 270.322 180.93C270.172 180.88 269.962 180.82 269.692 180.75C269.652 180.75 269.622 180.74 269.602 180.73C269.542 180.72 269.412 180.69 269.212 180.65C269.012 180.61 268.872 180.57 268.792 180.54C268.702 180.52 268.572 180.48 268.412 180.42C268.252 180.36 268.132 180.3 268.052 180.24C267.972 180.18 267.882 180.1 267.782 180C267.682 179.9 267.622 179.79 267.582 179.66C267.542 179.53 267.522 179.38 267.522 179.21C267.522 178.75 267.692 178.38 268.052 178.1C268.412 177.83 268.892 177.69 269.492 177.69C270.092 177.69 270.592 177.84 270.972 178.12C271.352 178.41 271.552 178.82 271.552 179.34ZM277.062 177.84L275.012 179.71L277.212 183H276.132L274.362 180.3L273.552 181.05V183H272.722V175.88H273.552V180.09L275.922 177.84H277.062Z" fill="black"/>
<path d="M178.14 124.88H179.11L180.52 130.83L182.13 124.88H183.16L184.75 130.83L186.21 124.88H187.15L185.25 132H184.26L182.62 126.04L180.96 132H179.97L178.14 124.88ZM190.412 126.72L190.402 127.61C190.342 127.6 190.272 127.6 190.182 127.6C189.912 127.6 189.672 127.64 189.472 127.72C189.272 127.8 189.122 127.91 189.002 128.04C188.882 128.18 188.792 128.34 188.712 128.54C188.642 128.74 188.592 128.94 188.572 129.14C188.552 129.34 188.542 129.57 188.542 129.82V132H187.692V126.84H188.502V127.95C188.842 127.13 189.472 126.72 190.412 126.72ZM191.952 124.88V125.92H191.092V124.88H191.952ZM191.952 126.84V132H191.092V126.84H191.952ZM195.479 126.84V127.54H194.449V130.55C194.449 130.72 194.449 130.83 194.449 130.88C194.449 130.94 194.469 131.01 194.509 131.1C194.539 131.19 194.599 131.25 194.679 131.27C194.759 131.3 194.869 131.31 195.019 131.31C195.139 131.31 195.299 131.3 195.479 131.28V132.01C195.239 132.04 195.019 132.05 194.829 132.05C194.589 132.05 194.389 132.03 194.229 131.97C194.069 131.92 193.939 131.86 193.859 131.79C193.779 131.73 193.719 131.61 193.679 131.44C193.639 131.27 193.609 131.13 193.609 131.01C193.599 130.89 193.599 130.7 193.599 130.42V130.38V130.33V130.28V127.54H192.729V126.84H193.599V125.31H194.449V126.84H195.479ZM200.833 130.37C200.573 131.57 199.823 132.17 198.583 132.17C197.823 132.17 197.223 131.94 196.793 131.46C196.363 130.99 196.153 130.33 196.153 129.49C196.153 128.66 196.373 127.99 196.813 127.47C197.253 126.95 197.833 126.69 198.553 126.69C199.343 126.69 199.933 126.96 200.313 127.5C200.693 128.04 200.893 128.71 200.893 129.53V129.65H197.013L197.003 129.71C197.003 130.26 197.143 130.69 197.433 131C197.713 131.32 198.113 131.47 198.613 131.47C198.983 131.47 199.273 131.39 199.493 131.21C199.713 131.04 199.883 130.76 200.003 130.37H200.833ZM200.013 128.96C199.973 128.47 199.823 128.09 199.563 127.81C199.303 127.53 198.953 127.39 198.533 127.39C198.113 127.39 197.773 127.53 197.503 127.81C197.223 128.09 197.063 128.48 197.013 128.96H200.013ZM204.484 126.72L204.474 127.61C204.414 127.6 204.344 127.6 204.254 127.6C203.984 127.6 203.744 127.64 203.544 127.72C203.344 127.8 203.194 127.91 203.074 128.04C202.954 128.18 202.864 128.34 202.784 128.54C202.714 128.74 202.664 128.94 202.644 129.14C202.624 129.34 202.614 129.57 202.614 129.82V132H201.764V126.84H202.574V127.95C202.914 127.13 203.544 126.72 204.484 126.72Z" fill="black"/>
<defs>
<filter id="filter0_d_7_390" x="102" y="19" width="85.1198" height="160" filterUnits="userSpaceOnUse" color-interpolation-filters="sRGB">
<feFlood flood-opacity="0" result="BackgroundImageFix"/>
<feColorMatrix in="SourceAlpha" type="matrix" values="0 0 0 0 0 0 0 0 0 0 0 0 0 0 0 0 0 0 127 0" result="hardAlpha"/>
<feOffset dy="4"/>
<feGaussianBlur stdDeviation="2"/>
<feComposite in2="hardAlpha" operator="out"/>
<feColorMatrix type="matrix" values="0 0 0 0 0 0 0 0 0 0 0 0 0 0 0 0 0 0 0.25 0"/>
<feBlend mode="normal" in2="BackgroundImageFix" result="effect1_dropShadow_7_390"/>
<feBlend mode="normal" in="SourceGraphic" in2="effect1_dropShadow_7_390" result="shape"/>
</filter>
<filter id="filter1_d_7_390" x="54" y="38" width="102" height="53" filterUnits="userSpaceOnUse" color-interpolation-filters="sRGB">
<feFlood flood-opacity="0" result="BackgroundImageFix"/>
<feColorMatrix in="SourceAlpha" type="matrix" values="0 0 0 0 0 0 0 0 0 0 0 0 0 0 0 0 0 0 127 0" result="hardAlpha"/>
<feOffset dy="4"/>
<feGaussianBlur stdDeviation="2"/>
<feComposite in2="hardAlpha" operator="out"/>
<feColorMatrix type="matrix" values="0 0 0 0 0 0 0 0 0 0 0 0 0 0 0 0 0 0 0.25 0"/>
<feBlend mode="normal" in2="BackgroundImageFix" result="effect1_dropShadow_7_390"/>
<feBlend mode="normal" in="SourceGraphic" in2="effect1_dropShadow_7_390" result="shape"/>
</filter>
<filter id="filter2_d_7_390" x="133" y="107" width="102" height="53" filterUnits="userSpaceOnUse" color-interpolation-filters="sRGB">
<feFlood flood-opacity="0" result="BackgroundImageFix"/>
<feColorMatrix in="SourceAlpha" type="matrix" values="0 0 0 0 0 0 0 0 0 0 0 0 0 0 0 0 0 0 127 0" result="hardAlpha"/>
<feOffset dy="4"/>
<feGaussianBlur stdDeviation="2"/>
<feComposite in2="hardAlpha" operator="out"/>
<feColorMatrix type="matrix" values="0 0 0 0 0 0 0 0 0 0 0 0 0 0 0 0 0 0 0.25 0"/>
<feBlend mode="normal" in2="BackgroundImageFix" result="effect1_dropShadow_7_390"/>
<feBlend mode="normal" in="SourceGraphic" in2="effect1_dropShadow_7_390" result="shape"/>
</filter>
</defs>
</svg>
