<svg width="198" height="270" viewBox="0 0 198 270" fill="none" xmlns="http://www.w3.org/2000/svg">
<rect width="198" height="270" fill="white"/>
<path d="M80.83 237.88H83.75C84.48 237.88 85.06 238.05 85.49 238.38C85.91 238.71 86.13 239.23 86.13 239.93C86.13 241.37 85.32 242.08 83.7 242.08H81.77V245H80.83V237.88ZM81.76 238.69V241.29H83.57C84.08 241.29 84.48 241.2 84.76 241.01C85.04 240.82 85.18 240.48 85.18 239.99C85.18 239.72 85.14 239.49 85.05 239.31C84.96 239.13 84.83 239 84.65 238.91C84.48 238.83 84.3 238.77 84.11 238.74C83.93 238.71 83.7 238.69 83.44 238.69H81.76ZM89.8144 239.72L89.8044 240.61C89.7444 240.6 89.6744 240.6 89.5844 240.6C89.3144 240.6 89.0744 240.64 88.8744 240.72C88.6744 240.8 88.5244 240.91 88.4044 241.04C88.2844 241.18 88.1944 241.34 88.1144 241.54C88.0444 241.74 87.9944 241.94 87.9744 242.14C87.9544 242.34 87.9444 242.57 87.9444 242.82V245H87.0944V239.84H87.9044V240.95C88.2444 240.13 88.8744 239.72 89.8144 239.72ZM94.6887 243.37C94.4287 244.57 93.6787 245.17 92.4387 245.17C91.6787 245.17 91.0787 244.94 90.6487 244.46C90.2187 243.99 90.0087 243.33 90.0087 242.49C90.0087 241.66 90.2287 240.99 90.6687 240.47C91.1087 239.95 91.6887 239.69 92.4087 239.69C93.1987 239.69 93.7887 239.96 94.1687 240.5C94.5487 241.04 94.7487 241.71 94.7487 242.53V242.65H90.8687L90.8587 242.71C90.8587 243.26 90.9987 243.69 91.2887 244C91.5687 244.32 91.9687 244.47 92.4687 244.47C92.8387 244.47 93.1287 244.39 93.3487 244.21C93.5687 244.04 93.7387 243.76 93.8587 243.37H94.6887ZM93.8687 241.96C93.8287 241.47 93.6787 241.09 93.4187 240.81C93.1587 240.53 92.8087 240.39 92.3887 240.39C91.9687 240.39 91.6287 240.53 91.3587 240.81C91.0787 241.09 90.9187 241.48 90.8687 241.96H93.8687ZM100.3 237.88V245H99.4998V244.24C99.1698 244.84 98.5998 245.14 97.7998 245.14C97.0598 245.14 96.4798 244.9 96.0498 244.41C95.6198 243.92 95.4098 243.25 95.4098 242.41C95.4098 241.63 95.6098 240.99 96.0098 240.47C96.4098 239.95 96.9998 239.69 97.7598 239.69C98.4998 239.69 99.0598 239.97 99.4498 240.53V237.88H100.3ZM97.8698 240.42C97.3798 240.42 96.9898 240.6 96.7098 240.95C96.4298 241.31 96.2898 241.79 96.2898 242.39C96.2898 243.02 96.4298 243.52 96.7198 243.89C97.0098 244.26 97.3998 244.44 97.8898 244.44C98.3798 244.44 98.7698 244.27 99.0498 243.91C99.3298 243.55 99.4698 243.06 99.4698 242.42C99.4698 241.86 99.3298 241.38 99.0698 241C98.8098 240.62 98.4098 240.42 97.8698 240.42ZM102.478 237.88V238.92H101.618V237.88H102.478ZM102.478 239.84V245H101.618V239.84H102.478ZM108.234 243.12C108.154 243.74 107.924 244.24 107.524 244.6C107.124 244.97 106.614 245.15 105.974 245.15C105.194 245.15 104.594 244.91 104.164 244.43C103.744 243.95 103.524 243.3 103.524 242.49C103.524 241.63 103.754 240.95 104.194 240.45C104.644 239.95 105.244 239.69 106.004 239.69C106.644 239.69 107.144 239.85 107.524 240.17C107.904 240.49 108.134 240.94 108.194 241.53H107.314C107.164 240.78 106.734 240.41 106.024 240.41C105.524 240.41 105.134 240.59 104.854 240.95C104.564 241.31 104.424 241.81 104.424 242.43C104.424 243.05 104.554 243.55 104.834 243.91C105.104 244.27 105.484 244.45 105.964 244.45C106.344 244.45 106.664 244.33 106.904 244.11C107.144 243.88 107.304 243.55 107.374 243.12H108.234ZM111.375 239.84V240.54H110.345V243.55C110.345 243.72 110.345 243.83 110.345 243.88C110.345 243.94 110.365 244.01 110.405 244.1C110.435 244.19 110.495 244.25 110.575 244.27C110.655 244.3 110.765 244.31 110.915 244.31C111.035 244.31 111.195 244.3 111.375 244.28V245.01C111.135 245.04 110.915 245.05 110.725 245.05C110.485 245.05 110.285 245.03 110.125 244.97C109.965 244.92 109.835 244.86 109.755 244.79C109.675 244.73 109.615 244.61 109.575 244.44C109.535 244.27 109.505 244.13 109.505 244.01C109.495 243.89 109.495 243.7 109.495 243.42V243.38V243.33V243.28V240.54H108.625V239.84H109.495V238.31H110.345V239.84H111.375ZM113.22 237.88V238.92H112.36V237.88H113.22ZM113.22 239.84V245H112.36V239.84H113.22ZM116.796 239.69C117.576 239.69 118.176 239.93 118.616 240.41C119.046 240.88 119.266 241.54 119.266 242.39C119.266 243.27 119.046 243.95 118.616 244.43C118.176 244.92 117.566 245.16 116.786 245.16C115.996 245.16 115.376 244.92 114.936 244.44C114.486 243.96 114.266 243.3 114.266 242.44C114.266 241.6 114.486 240.93 114.946 240.43C115.396 239.94 116.016 239.69 116.796 239.69ZM116.776 240.41C116.276 240.41 115.876 240.59 115.586 240.95C115.286 241.32 115.146 241.81 115.146 242.42C115.146 243.06 115.286 243.55 115.576 243.91C115.866 244.27 116.276 244.44 116.796 244.44C117.296 244.44 117.686 244.26 117.966 243.9C118.246 243.54 118.396 243.05 118.396 242.41C118.396 241.8 118.246 241.31 117.956 240.95C117.666 240.59 117.276 240.41 116.776 240.41ZM121.079 239.84V240.64C121.499 240.02 122.089 239.7 122.839 239.7C123.439 239.7 123.879 239.86 124.149 240.18C124.419 240.5 124.559 240.96 124.559 241.57V245H123.709V241.96C123.709 241.71 123.699 241.51 123.679 241.37C123.659 241.23 123.619 241.07 123.559 240.91C123.489 240.75 123.379 240.63 123.219 240.55C123.059 240.48 122.849 240.44 122.599 240.44C121.619 240.44 121.129 241.06 121.129 242.3V245H120.279V239.84H121.079ZM129.665 241.34H128.815C128.755 240.72 128.335 240.4 127.555 240.4C127.225 240.4 126.965 240.47 126.785 240.59C126.595 240.72 126.505 240.89 126.505 241.1C126.505 241.16 126.505 241.22 126.525 241.28C126.535 241.34 126.555 241.39 126.595 241.43C126.635 241.47 126.665 241.51 126.695 241.54C126.725 241.58 126.775 241.61 126.845 241.64C126.915 241.67 126.965 241.69 127.005 241.71C127.045 241.73 127.105 241.76 127.205 241.78C127.305 241.8 127.375 241.82 127.415 241.83C127.455 241.84 127.525 241.86 127.645 241.88C127.765 241.91 127.835 241.93 127.875 241.93C128.115 241.99 128.305 242.03 128.425 242.06C128.545 242.1 128.715 242.16 128.935 242.25C129.155 242.34 129.315 242.43 129.435 242.53C129.545 242.63 129.645 242.76 129.735 242.93C129.825 243.1 129.875 243.29 129.875 243.5C129.875 244 129.675 244.41 129.285 244.71C128.895 245.01 128.375 245.16 127.735 245.16C127.035 245.16 126.495 245.01 126.115 244.7C125.735 244.4 125.535 243.95 125.515 243.37H126.355C126.395 244.1 126.865 244.46 127.755 244.46C128.135 244.46 128.435 244.39 128.665 244.23C128.895 244.07 129.015 243.86 129.015 243.6C129.015 243.43 128.955 243.29 128.835 243.17C128.715 243.06 128.575 242.98 128.435 242.93C128.285 242.88 128.075 242.82 127.805 242.75C127.765 242.75 127.735 242.74 127.715 242.73C127.655 242.72 127.525 242.69 127.325 242.65C127.125 242.61 126.985 242.57 126.905 242.54C126.815 242.52 126.685 242.48 126.525 242.42C126.365 242.36 126.245 242.3 126.165 242.24C126.085 242.18 125.995 242.1 125.895 242C125.795 241.9 125.735 241.79 125.695 241.66C125.655 241.53 125.635 241.38 125.635 241.21C125.635 240.75 125.805 240.38 126.165 240.1C126.525 239.83 127.005 239.69 127.605 239.69C128.205 239.69 128.705 239.84 129.085 240.12C129.465 240.41 129.665 240.82 129.665 241.34Z" fill="black"/>
<path d="M19.82 55.31C19.74 56.21 19.42 56.92 18.88 57.42C18.34 57.92 17.62 58.17 16.73 58.17C15.72 58.17 14.92 57.84 14.33 57.17C13.73 56.5 13.44 55.59 13.44 54.45C13.44 53.39 13.73 52.5 14.33 51.79C14.93 51.08 15.75 50.72 16.81 50.72C17.56 50.72 18.22 50.93 18.79 51.33C19.37 51.74 19.69 52.3 19.75 53.02H18.81C18.71 52.56 18.47 52.19 18.11 51.93C17.75 51.67 17.31 51.53 16.78 51.53C15.99 51.53 15.39 51.81 14.99 52.37C14.59 52.93 14.39 53.62 14.39 54.44C14.39 55.35 14.6 56.06 15.03 56.58C15.45 57.1 16.04 57.36 16.78 57.36C17.38 57.36 17.87 57.19 18.23 56.84C18.59 56.49 18.8 55.98 18.88 55.31H19.82ZM23.1168 52.69C23.8968 52.69 24.4968 52.93 24.9368 53.41C25.3668 53.88 25.5868 54.54 25.5868 55.39C25.5868 56.27 25.3668 56.95 24.9368 57.43C24.4968 57.92 23.8868 58.16 23.1068 58.16C22.3168 58.16 21.6968 57.92 21.2568 57.44C20.8068 56.96 20.5868 56.3 20.5868 55.44C20.5868 54.6 20.8068 53.93 21.2668 53.43C21.7168 52.94 22.3368 52.69 23.1168 52.69ZM23.0968 53.41C22.5968 53.41 22.1968 53.59 21.9068 53.95C21.6068 54.32 21.4668 54.81 21.4668 55.42C21.4668 56.06 21.6068 56.55 21.8968 56.91C22.1868 57.27 22.5968 57.44 23.1168 57.44C23.6168 57.44 24.0068 57.26 24.2868 56.9C24.5668 56.54 24.7168 56.05 24.7168 55.41C24.7168 54.8 24.5668 54.31 24.2768 53.95C23.9868 53.59 23.5968 53.41 23.0968 53.41ZM27.399 52.84V53.64C27.819 53.02 28.409 52.7 29.159 52.7C29.759 52.7 30.199 52.86 30.469 53.18C30.739 53.5 30.879 53.96 30.879 54.57V58H30.029V54.96C30.029 54.71 30.019 54.51 29.999 54.37C29.979 54.23 29.939 54.07 29.879 53.91C29.809 53.75 29.699 53.63 29.539 53.55C29.379 53.48 29.169 53.44 28.919 53.44C27.939 53.44 27.449 54.06 27.449 55.3V58H26.599V52.84H27.399ZM31.6556 52.84H32.6056L34.0656 57.17L35.4856 52.84H36.3756L34.4856 58H33.5756L31.6556 52.84ZM41.5656 56.37C41.3056 57.57 40.5556 58.17 39.3156 58.17C38.5556 58.17 37.9556 57.94 37.5256 57.46C37.0956 56.99 36.8856 56.33 36.8856 55.49C36.8856 54.66 37.1056 53.99 37.5456 53.47C37.9856 52.95 38.5656 52.69 39.2856 52.69C40.0756 52.69 40.6656 52.96 41.0456 53.5C41.4256 54.04 41.6256 54.71 41.6256 55.53V55.65H37.7456L37.7356 55.71C37.7356 56.26 37.8756 56.69 38.1656 57C38.4456 57.32 38.8456 57.47 39.3456 57.47C39.7156 57.47 40.0056 57.39 40.2256 57.21C40.4456 57.04 40.6156 56.76 40.7356 56.37H41.5656ZM40.7456 54.96C40.7056 54.47 40.5556 54.09 40.2956 53.81C40.0356 53.53 39.6856 53.39 39.2656 53.39C38.8456 53.39 38.5056 53.53 38.2356 53.81C37.9556 54.09 37.7956 54.48 37.7456 54.96H40.7456ZM45.2167 52.72L45.2067 53.61C45.1467 53.6 45.0767 53.6 44.9867 53.6C44.7167 53.6 44.4767 53.64 44.2767 53.72C44.0767 53.8 43.9267 53.91 43.8067 54.04C43.6867 54.18 43.5967 54.34 43.5167 54.54C43.4467 54.74 43.3967 54.94 43.3767 55.14C43.3567 55.34 43.3467 55.57 43.3467 55.82V58H42.4967V52.84H43.3067V53.95C43.6467 53.13 44.2767 52.72 45.2167 52.72ZM48.0668 52.84V53.54H47.0368V56.55C47.0368 56.72 47.0368 56.83 47.0368 56.88C47.0368 56.94 47.0568 57.01 47.0968 57.1C47.1268 57.19 47.1868 57.25 47.2668 57.27C47.3468 57.3 47.4568 57.31 47.6068 57.31C47.7268 57.31 47.8868 57.3 48.0668 57.28V58.01C47.8268 58.04 47.6068 58.05 47.4168 58.05C47.1768 58.05 46.9768 58.03 46.8168 57.97C46.6568 57.92 46.5268 57.86 46.4468 57.79C46.3668 57.73 46.3068 57.61 46.2668 57.44C46.2268 57.27 46.1968 57.13 46.1968 57.01C46.1868 56.89 46.1868 56.7 46.1868 56.42V56.38V56.33V56.28V53.54H45.3168V52.84H46.1868V51.31H47.0368V52.84H48.0668ZM53.4211 56.37C53.1611 57.57 52.4111 58.17 51.1711 58.17C50.4111 58.17 49.8111 57.94 49.3811 57.46C48.9511 56.99 48.7411 56.33 48.7411 55.49C48.7411 54.66 48.9611 53.99 49.4011 53.47C49.8411 52.95 50.4211 52.69 51.1411 52.69C51.9311 52.69 52.5211 52.96 52.9011 53.5C53.2811 54.04 53.4811 54.71 53.4811 55.53V55.65H49.6011L49.5911 55.71C49.5911 56.26 49.7311 56.69 50.0211 57C50.3011 57.32 50.7011 57.47 51.2011 57.47C51.5711 57.47 51.8611 57.39 52.0811 57.21C52.3011 57.04 52.4711 56.76 52.5911 56.37H53.4211ZM52.6011 54.96C52.5611 54.47 52.4111 54.09 52.1511 53.81C51.8911 53.53 51.5411 53.39 51.1211 53.39C50.7011 53.39 50.3611 53.53 50.0911 53.81C49.8111 54.09 49.6511 54.48 49.6011 54.96H52.6011ZM59.0322 50.88V58H58.2322V57.24C57.9022 57.84 57.3322 58.14 56.5322 58.14C55.7922 58.14 55.2122 57.9 54.7822 57.41C54.3522 56.92 54.1422 56.25 54.1422 55.41C54.1422 54.63 54.3422 53.99 54.7422 53.47C55.1422 52.95 55.7322 52.69 56.4922 52.69C57.2322 52.69 57.7922 52.97 58.1822 53.53V50.88H59.0322ZM56.6022 53.42C56.1122 53.42 55.7222 53.6 55.4422 53.95C55.1622 54.31 55.0222 54.79 55.0222 55.39C55.0222 56.02 55.1622 56.52 55.4522 56.89C55.7422 57.26 56.1322 57.44 56.6222 57.44C57.1122 57.44 57.5022 57.27 57.7822 56.91C58.0622 56.55 58.2022 56.06 58.2022 55.42C58.2022 54.86 58.0622 54.38 57.8022 54C57.5422 53.62 57.1422 53.42 56.6022 53.42ZM29.4228 60.88V68H28.6228V67.24C28.2928 67.84 27.7228 68.14 26.9228 68.14C26.1828 68.14 25.6028 67.9 25.1728 67.41C24.7428 66.92 24.5328 66.25 24.5328 65.41C24.5328 64.63 24.7328 63.99 25.1328 63.47C25.5328 62.95 26.1228 62.69 26.8828 62.69C27.6228 62.69 28.1828 62.97 28.5728 63.53V60.88H29.4228ZM26.9928 63.42C26.5028 63.42 26.1128 63.6 25.8328 63.95C25.5528 64.31 25.4128 64.79 25.4128 65.39C25.4128 66.02 25.5528 66.52 25.8428 66.89C26.1328 67.26 26.5228 67.44 27.0128 67.44C27.5028 67.44 27.8928 67.27 28.1728 66.91C28.4528 66.55 28.5928 66.06 28.5928 65.42C28.5928 64.86 28.4528 64.38 28.1928 64C27.9328 63.62 27.5328 63.42 26.9928 63.42ZM35.2705 67.32V67.99C35.0905 68.05 34.9005 68.09 34.6905 68.09C34.2005 68.09 33.9505 67.83 33.9405 67.33C33.4505 67.87 32.8305 68.15 32.0705 68.15C31.5605 68.15 31.1605 68.02 30.8605 67.76C30.5605 67.5 30.4205 67.14 30.4205 66.69C30.4205 65.77 31.0305 65.23 32.2505 65.08C32.3305 65.06 32.4405 65.05 32.6005 65.04C33.1805 64.97 33.5305 64.89 33.6705 64.81C33.8205 64.7 33.9005 64.52 33.9005 64.26C33.9005 63.69 33.5105 63.41 32.7305 63.41C32.3305 63.41 32.0205 63.49 31.8205 63.65C31.6105 63.81 31.4905 64.08 31.4505 64.46H30.6205C30.6305 63.9 30.8305 63.47 31.2105 63.17C31.5905 62.86 32.1105 62.71 32.7805 62.71C33.5005 62.71 34.0405 62.87 34.4005 63.21C34.5105 63.31 34.5905 63.45 34.6505 63.63C34.7005 63.8 34.7305 63.94 34.7405 64.05C34.7405 64.16 34.7505 64.33 34.7505 64.55C34.7505 64.8 34.7405 65.18 34.7305 65.69C34.7105 66.21 34.7105 66.59 34.7105 66.84C34.7105 67.03 34.7305 67.16 34.7805 67.24C34.8305 67.32 34.9205 67.35 35.0605 67.35C35.1105 67.35 35.1805 67.34 35.2705 67.32ZM33.9005 65.33C33.8405 65.37 33.7705 65.41 33.7105 65.45C33.6405 65.48 33.5505 65.51 33.4505 65.53C33.3505 65.55 33.2805 65.56 33.2405 65.57C33.2005 65.58 33.1205 65.59 32.9805 65.61C32.8405 65.63 32.7605 65.64 32.7605 65.64C32.5505 65.66 32.4105 65.68 32.3505 65.69C32.2905 65.7 32.1705 65.73 31.9905 65.78C31.8105 65.82 31.6905 65.88 31.6205 65.94C31.5405 66 31.4705 66.08 31.4005 66.2C31.3305 66.32 31.3005 66.46 31.3005 66.62C31.3005 66.88 31.3905 67.09 31.5705 67.25C31.7505 67.4 32.0105 67.48 32.3305 67.48C32.7305 67.48 33.1005 67.36 33.4205 67.12C33.7405 66.88 33.9005 66.59 33.9005 66.27V65.33ZM38.2816 62.84V63.54H37.2516V66.55C37.2516 66.72 37.2516 66.83 37.2516 66.88C37.2516 66.94 37.2716 67.01 37.3116 67.1C37.3416 67.19 37.4016 67.25 37.4816 67.27C37.5616 67.3 37.6716 67.31 37.8216 67.31C37.9416 67.31 38.1016 67.3 38.2816 67.28V68.01C38.0416 68.04 37.8216 68.05 37.6316 68.05C37.3916 68.05 37.1916 68.03 37.0316 67.97C36.8716 67.92 36.7416 67.86 36.6616 67.79C36.5816 67.73 36.5216 67.61 36.4816 67.44C36.4416 67.27 36.4116 67.13 36.4116 67.01C36.4016 66.89 36.4016 66.7 36.4016 66.42V66.38V66.33V66.28V63.54H35.5316V62.84H36.4016V61.31H37.2516V62.84H38.2816ZM43.7959 67.32V67.99C43.6159 68.05 43.4259 68.09 43.2159 68.09C42.7259 68.09 42.4759 67.83 42.4659 67.33C41.9759 67.87 41.3559 68.15 40.5959 68.15C40.0859 68.15 39.6859 68.02 39.3859 67.76C39.0859 67.5 38.9459 67.14 38.9459 66.69C38.9459 65.77 39.5559 65.23 40.7759 65.08C40.8559 65.06 40.9659 65.05 41.1259 65.04C41.7059 64.97 42.0559 64.89 42.1959 64.81C42.3459 64.7 42.4259 64.52 42.4259 64.26C42.4259 63.69 42.0359 63.41 41.2559 63.41C40.8559 63.41 40.5459 63.49 40.3459 63.65C40.1359 63.81 40.0159 64.08 39.9759 64.46H39.1459C39.1559 63.9 39.3559 63.47 39.7359 63.17C40.1159 62.86 40.6359 62.71 41.3059 62.71C42.0259 62.71 42.5659 62.87 42.9259 63.21C43.0359 63.31 43.1159 63.45 43.1759 63.63C43.2259 63.8 43.2559 63.94 43.2659 64.05C43.2659 64.16 43.2759 64.33 43.2759 64.55C43.2759 64.8 43.2659 65.18 43.2559 65.69C43.2359 66.21 43.2359 66.59 43.2359 66.84C43.2359 67.03 43.2559 67.16 43.3059 67.24C43.3559 67.32 43.4459 67.35 43.5859 67.35C43.6359 67.35 43.7059 67.34 43.7959 67.32ZM42.4259 65.33C42.3659 65.37 42.2959 65.41 42.2359 65.45C42.1659 65.48 42.0759 65.51 41.9759 65.53C41.8759 65.55 41.8059 65.56 41.7659 65.57C41.7259 65.58 41.6459 65.59 41.5059 65.61C41.3659 65.63 41.2859 65.64 41.2859 65.64C41.0759 65.66 40.9359 65.68 40.8759 65.69C40.8159 65.7 40.6959 65.73 40.5159 65.78C40.3359 65.82 40.2159 65.88 40.1459 65.94C40.0659 66 39.9959 66.08 39.9259 66.2C39.8559 66.32 39.8259 66.46 39.8259 66.62C39.8259 66.88 39.9159 67.09 40.0959 67.25C40.2759 67.4 40.5359 67.48 40.8559 67.48C41.2559 67.48 41.6259 67.36 41.9459 67.12C42.2659 66.88 42.4259 66.59 42.4259 66.27V65.33Z" fill="black"/>
<g filter="url(#filter0_d_12_1153)">
<path fill-rule="evenodd" clip-rule="evenodd" d="M143 150H66V232H143V216H124C118.477 216 114 211.523 114 206V197H111.708C110.06 198.841 107.666 200 105 200C100.029 200 96 195.971 96 191C96 186.029 100.029 182 105 182C108.12 182 110.87 183.588 112.484 186H114V176C114 170.477 118.477 166 124 166H143V150Z" fill="#4285F4"/>
<path fill-rule="evenodd" clip-rule="evenodd" d="M143 84H66V166H143V150H124C118.477 150 114 145.523 114 140V131H111.708C110.06 132.841 107.666 134 105 134C100.029 134 96 129.971 96 125C96 120.029 100.029 116 105 116C108.12 116 110.87 117.588 112.484 120H114V110C114 104.477 118.477 100 124 100H143V84Z" fill="#4285F4"/>
<path fill-rule="evenodd" clip-rule="evenodd" d="M143 18H66V100H143V84H124C118.477 84 114 79.5228 114 74V65H111.708C110.06 66.8412 107.666 68 105 68C100.029 68 96 63.9706 96 59C96 54.0294 100.029 50 105 50C108.12 50 110.87 51.588 112.484 54H114V44C114 38.4772 118.477 34 124 34H143V18Z" fill="#4285F4"/>
<path d="M66 11H143V34H66V11Z" fill="#4285F4"/>
</g>
<line x1="88.5" y1="63" x2="88.5" y2="126" stroke="white"/>
<line x1="88" y1="63.4403" x2="99" y2="63.4403" stroke="white"/>
<line x1="88.5" y1="63" x2="88.5" y2="126" stroke="white"/>
<line x1="88" y1="63.4403" x2="99" y2="63.4403" stroke="white"/>
<line x1="88" y1="125.5" x2="98" y2="125.5" stroke="white"/>
<line x1="88.5" y1="127" x2="88.5" y2="190" stroke="white"/>
<line x1="88" y1="127.44" x2="101" y2="127.44" stroke="white"/>
<line x1="88" y1="189.5" x2="99.8182" y2="189.5" stroke="white"/>
<line x1="66" y1="58.5" x2="99" y2="58.5" stroke="white"/>
<path d="M91.8 13.88H93.1L95.39 19.91L97.6 13.88H98.91V21H98.02V15.06L95.79 21H94.97L92.7 15.06V21H91.8V13.88ZM102.611 15.69C103.391 15.69 103.991 15.93 104.431 16.41C104.861 16.88 105.081 17.54 105.081 18.39C105.081 19.27 104.861 19.95 104.431 20.43C103.991 20.92 103.381 21.16 102.601 21.16C101.811 21.16 101.191 20.92 100.751 20.44C100.301 19.96 100.081 19.3 100.081 18.44C100.081 17.6 100.301 16.93 100.761 16.43C101.211 15.94 101.831 15.69 102.611 15.69ZM102.591 16.41C102.091 16.41 101.691 16.59 101.401 16.95C101.101 17.32 100.961 17.81 100.961 18.42C100.961 19.06 101.101 19.55 101.391 19.91C101.681 20.27 102.091 20.44 102.611 20.44C103.111 20.44 103.501 20.26 103.781 19.9C104.061 19.54 104.211 19.05 104.211 18.41C104.211 17.8 104.061 17.31 103.771 16.95C103.481 16.59 103.091 16.41 102.591 16.41ZM110.743 13.88V21H109.943V20.24C109.613 20.84 109.043 21.14 108.243 21.14C107.503 21.14 106.923 20.9 106.493 20.41C106.063 19.92 105.853 19.25 105.853 18.41C105.853 17.63 106.053 16.99 106.453 16.47C106.853 15.95 107.443 15.69 108.203 15.69C108.943 15.69 109.503 15.97 109.893 16.53V13.88H110.743ZM108.313 16.42C107.823 16.42 107.433 16.6 107.153 16.95C106.873 17.31 106.733 17.79 106.733 18.39C106.733 19.02 106.873 19.52 107.163 19.89C107.453 20.26 107.843 20.44 108.333 20.44C108.823 20.44 109.213 20.27 109.493 19.91C109.773 19.55 109.913 19.06 109.913 18.42C109.913 17.86 109.773 17.38 109.513 17C109.253 16.62 108.853 16.42 108.313 16.42ZM116.431 19.37C116.171 20.57 115.421 21.17 114.181 21.17C113.421 21.17 112.821 20.94 112.391 20.46C111.961 19.99 111.751 19.33 111.751 18.49C111.751 17.66 111.971 16.99 112.411 16.47C112.851 15.95 113.431 15.69 114.151 15.69C114.941 15.69 115.531 15.96 115.911 16.5C116.291 17.04 116.491 17.71 116.491 18.53V18.65H112.611L112.601 18.71C112.601 19.26 112.741 19.69 113.031 20C113.311 20.32 113.711 20.47 114.211 20.47C114.581 20.47 114.871 20.39 115.091 20.21C115.311 20.04 115.481 19.76 115.601 19.37H116.431ZM115.611 17.96C115.571 17.47 115.421 17.09 115.161 16.81C114.901 16.53 114.551 16.39 114.131 16.39C113.711 16.39 113.371 16.53 113.101 16.81C112.821 17.09 112.661 17.48 112.611 17.96H115.611ZM118.292 13.88V21H117.432V13.88H118.292Z" fill="white"/>
<rect x="66" y="23" width="77" height="207" fill="#4285F4"/>
<path d="M82.5 106.1C82.5 99.2 84.4 93.5 88.2 89.1C92 84.7 97.6 82.5 105 82.5C111.4 82.5 116.5 84.3 120.3 87.7C124.1 91.2 126.1 95.9 126.1 101.8C126.1 105.3 125.4 108.3 124.2 110.9C122.9 113.5 120.9 116 118.3 118.5C117.9 118.8 117.1 119.6 115.7 120.8C114.3 122 113.6 122.8 113.4 123.1C113.2 123.3 112.6 124 111.7 125C110.8 126 110.3 126.7 110.2 127.3C110 127.9 109.8 128.7 109.4 129.9C109 131 108.7 132.2 108.7 133.4C108.6 134.6 108.6 136.1 108.6 137.7H100.4V137.1C100.4 134.1 100.5 131.7 100.8 129.7C101.1 127.8 101.8 125.9 102.9 124.1C104 122.3 105 120.8 106 119.8C107 118.7 108.8 116.9 111.4 114.3C113.5 112.1 115 110.2 115.8 108.5C116.6 106.8 117.1 104.9 117.1 102.8C117.1 98.9 116 95.8 113.8 93.5C111.6 91.3 108.6 90.1 104.9 90.1C96.1 90.1 91.5 95.5 90.9 106.1H82.5ZM109.6 144.9V155H99.1V144.9H109.6Z" fill="white"/>
<path d="M65 58.5H104.5" stroke="white"/>
<path d="M105 58L105 83" stroke="white"/>
<line x1="104.5" y1="137" x2="104.5" y2="232" stroke="white"/>
<defs>
<filter id="filter0_d_12_1153" x="62" y="11" width="85" height="229" filterUnits="userSpaceOnUse" color-interpolation-filters="sRGB">
<feFlood flood-opacity="0" result="BackgroundImageFix"/>
<feColorMatrix in="SourceAlpha" type="matrix" values="0 0 0 0 0 0 0 0 0 0 0 0 0 0 0 0 0 0 127 0" result="hardAlpha"/>
<feOffset dy="4"/>
<feGaussianBlur stdDeviation="2"/>
<feComposite in2="hardAlpha" operator="out"/>
<feColorMatrix type="matrix" values="0 0 0 0 0 0 0 0 0 0 0 0 0 0 0 0 0 0 0.25 0"/>
<feBlend mode="normal" in2="BackgroundImageFix" result="effect1_dropShadow_12_1153"/>
<feBlend mode="normal" in="SourceGraphic" in2="effect1_dropShadow_12_1153" result="shape"/>
</filter>
</defs>
</svg>
