<svg width="198" height="270" viewBox="0 0 198 270" fill="none" xmlns="http://www.w3.org/2000/svg">
<g clip-path="url(#clip0_11_1004)">
<rect width="198" height="270" fill="white"/>
<g filter="url(#filter0_d_11_1004)">
<path d="M122.5 186C122.5 180.753 126.753 176.5 132 176.5H197.5V220.5H132C126.753 220.5 122.5 216.247 122.5 211V186Z" fill="white" stroke="#D9D9D9"/>
<circle cx="112" cy="199" r="7" fill="white"/>
<circle cx="112" cy="199" r="7.5" stroke="#8C8787" stroke-opacity="0.3"/>
<mask id="path-4-inside-1_11_1004" fill="white">
<path d="M118 196C118 195.448 118.448 195 119 195H123V203H119C118.448 203 118 202.552 118 202V196Z"/>
</mask>
<path d="M118 196C118 195.448 118.448 195 119 195H123V203H119C118.448 203 118 202.552 118 202V196Z" fill="white"/>
<path d="M118 196C118 194.895 118.895 194 120 194H123V196H119C118.448 196 118 196 118 196ZM123 204H120C118.895 204 118 203.105 118 202C118 202 118.448 202 119 202H123V204ZM118 203V195V203ZM123 195V203V195Z" fill="#8C8787" fill-opacity="0.3" mask="url(#path-4-inside-1_11_1004)"/>
</g>
<g filter="url(#filter1_d_11_1004)">
<path d="M119.5 183C119.5 177.753 123.753 173.5 129 173.5H194.5V217.5H129C123.753 217.5 119.5 213.247 119.5 208V183Z" fill="white" stroke="#D9D9D9"/>
<circle cx="109" cy="196" r="7" fill="white"/>
<circle cx="109" cy="196" r="7.5" stroke="#8C8787" stroke-opacity="0.3"/>
<mask id="path-9-inside-2_11_1004" fill="white">
<path d="M115 193C115 192.448 115.448 192 116 192H120V200H116C115.448 200 115 199.552 115 199V193Z"/>
</mask>
<path d="M115 193C115 192.448 115.448 192 116 192H120V200H116C115.448 200 115 199.552 115 199V193Z" fill="white"/>
<path d="M115 193C115 191.895 115.895 191 117 191H120V193H116C115.448 193 115 193 115 193ZM120 201H117C115.895 201 115 200.105 115 199C115 199 115.448 199 116 199H120V201ZM115 200V192V200ZM120 192V200V192Z" fill="#8C8787" fill-opacity="0.3" mask="url(#path-9-inside-2_11_1004)"/>
</g>
<rect x="66" y="20" width="77" height="82" fill="#D9D9D9"/>
<path d="M65.83 240.88H68.75C69.48 240.88 70.06 241.05 70.49 241.38C70.91 241.71 71.13 242.23 71.13 242.93C71.13 244.37 70.32 245.08 68.7 245.08H66.77V248H65.83V240.88ZM66.76 241.69V244.29H68.57C69.08 244.29 69.48 244.2 69.76 244.01C70.04 243.82 70.18 243.48 70.18 242.99C70.18 242.72 70.14 242.49 70.05 242.31C69.96 242.13 69.83 242 69.65 241.91C69.48 241.83 69.3 241.77 69.11 241.74C68.93 241.71 68.7 241.69 68.44 241.69H66.76ZM74.8144 242.72L74.8044 243.61C74.7444 243.6 74.6744 243.6 74.5844 243.6C74.3144 243.6 74.0744 243.64 73.8744 243.72C73.6744 243.8 73.5244 243.91 73.4044 244.04C73.2844 244.18 73.1944 244.34 73.1144 244.54C73.0444 244.74 72.9944 244.94 72.9744 245.14C72.9544 245.34 72.9444 245.57 72.9444 245.82V248H72.0944V242.84H72.9044V243.95C73.2444 243.13 73.8744 242.72 74.8144 242.72ZM79.6887 246.37C79.4287 247.57 78.6787 248.17 77.4387 248.17C76.6787 248.17 76.0787 247.94 75.6487 247.46C75.2187 246.99 75.0087 246.33 75.0087 245.49C75.0087 244.66 75.2287 243.99 75.6687 243.47C76.1087 242.95 76.6887 242.69 77.4087 242.69C78.1987 242.69 78.7887 242.96 79.1687 243.5C79.5487 244.04 79.7487 244.71 79.7487 245.53V245.65H75.8687L75.8587 245.71C75.8587 246.26 75.9987 246.69 76.2887 247C76.5687 247.32 76.9687 247.47 77.4687 247.47C77.8387 247.47 78.1287 247.39 78.3487 247.21C78.5687 247.04 78.7387 246.76 78.8587 246.37H79.6887ZM78.8687 244.96C78.8287 244.47 78.6787 244.09 78.4187 243.81C78.1587 243.53 77.8087 243.39 77.3887 243.39C76.9687 243.39 76.6287 243.53 76.3587 243.81C76.0787 244.09 75.9187 244.48 75.8687 244.96H78.8687ZM85.2998 240.88V248H84.4998V247.24C84.1698 247.84 83.5998 248.14 82.7998 248.14C82.0598 248.14 81.4798 247.9 81.0498 247.41C80.6198 246.92 80.4098 246.25 80.4098 245.41C80.4098 244.63 80.6098 243.99 81.0098 243.47C81.4098 242.95 81.9998 242.69 82.7598 242.69C83.4998 242.69 84.0598 242.97 84.4498 243.53V240.88H85.2998ZM82.8698 243.42C82.3798 243.42 81.9898 243.6 81.7098 243.95C81.4298 244.31 81.2898 244.79 81.2898 245.39C81.2898 246.02 81.4298 246.52 81.7198 246.89C82.0098 247.26 82.3998 247.44 82.8898 247.44C83.3798 247.44 83.7698 247.27 84.0498 246.91C84.3298 246.55 84.4698 246.06 84.4698 245.42C84.4698 244.86 84.3298 244.38 84.0698 244C83.8098 243.62 83.4098 243.42 82.8698 243.42ZM87.4775 240.88V241.92H86.6175V240.88H87.4775ZM87.4775 242.84V248H86.6175V242.84H87.4775ZM93.2343 246.12C93.1543 246.74 92.9243 247.24 92.5243 247.6C92.1243 247.97 91.6143 248.15 90.9743 248.15C90.1943 248.15 89.5943 247.91 89.1643 247.43C88.7443 246.95 88.5243 246.3 88.5243 245.49C88.5243 244.63 88.7543 243.95 89.1943 243.45C89.6443 242.95 90.2443 242.69 91.0043 242.69C91.6443 242.69 92.1443 242.85 92.5243 243.17C92.9043 243.49 93.1343 243.94 93.1943 244.53H92.3143C92.1643 243.78 91.7343 243.41 91.0243 243.41C90.5243 243.41 90.1343 243.59 89.8543 243.95C89.5643 244.31 89.4243 244.81 89.4243 245.43C89.4243 246.05 89.5543 246.55 89.8343 246.91C90.1043 247.27 90.4843 247.45 90.9643 247.45C91.3443 247.45 91.6643 247.33 91.9043 247.11C92.1443 246.88 92.3043 246.55 92.3743 246.12H93.2343ZM96.3754 242.84V243.54H95.3454V246.55C95.3454 246.72 95.3454 246.83 95.3454 246.88C95.3454 246.94 95.3654 247.01 95.4054 247.1C95.4354 247.19 95.4954 247.25 95.5754 247.27C95.6554 247.3 95.7654 247.31 95.9154 247.31C96.0354 247.31 96.1954 247.3 96.3754 247.28V248.01C96.1354 248.04 95.9154 248.05 95.7254 248.05C95.4854 248.05 95.2854 248.03 95.1254 247.97C94.9654 247.92 94.8354 247.86 94.7554 247.79C94.6754 247.73 94.6154 247.61 94.5754 247.44C94.5354 247.27 94.5054 247.13 94.5054 247.01C94.4954 246.89 94.4954 246.7 94.4954 246.42V246.38V246.33V246.28V243.54H93.6254V242.84H94.4954V241.31H95.3454V242.84H96.3754ZM98.2197 240.88V241.92H97.3597V240.88H98.2197ZM98.2197 242.84V248H97.3597V242.84H98.2197ZM101.796 242.69C102.576 242.69 103.176 242.93 103.616 243.41C104.046 243.88 104.266 244.54 104.266 245.39C104.266 246.27 104.046 246.95 103.616 247.43C103.176 247.92 102.566 248.16 101.786 248.16C100.996 248.16 100.376 247.92 99.9365 247.44C99.4865 246.96 99.2665 246.3 99.2665 245.44C99.2665 244.6 99.4865 243.93 99.9465 243.43C100.396 242.94 101.016 242.69 101.796 242.69ZM101.776 243.41C101.276 243.41 100.876 243.59 100.586 243.95C100.286 244.32 100.146 244.81 100.146 245.42C100.146 246.06 100.286 246.55 100.576 246.91C100.866 247.27 101.276 247.44 101.796 247.44C102.296 247.44 102.686 247.26 102.966 246.9C103.246 246.54 103.396 246.05 103.396 245.41C103.396 244.8 103.246 244.31 102.956 243.95C102.666 243.59 102.276 243.41 101.776 243.41ZM106.079 242.84V243.64C106.499 243.02 107.089 242.7 107.839 242.7C108.439 242.7 108.879 242.86 109.149 243.18C109.419 243.5 109.559 243.96 109.559 244.57V248H108.709V244.96C108.709 244.71 108.699 244.51 108.679 244.37C108.659 244.23 108.619 244.07 108.559 243.91C108.489 243.75 108.379 243.63 108.219 243.55C108.059 243.48 107.849 243.44 107.599 243.44C106.619 243.44 106.129 244.06 106.129 245.3V248H105.279V242.84H106.079ZM114.665 244.34H113.815C113.755 243.72 113.335 243.4 112.555 243.4C112.225 243.4 111.965 243.47 111.785 243.59C111.595 243.72 111.505 243.89 111.505 244.1C111.505 244.16 111.505 244.22 111.525 244.28C111.535 244.34 111.555 244.39 111.595 244.43C111.635 244.47 111.665 244.51 111.695 244.54C111.725 244.58 111.775 244.61 111.845 244.64C111.915 244.67 111.965 244.69 112.005 244.71C112.045 244.73 112.105 244.76 112.205 244.78C112.305 244.8 112.375 244.82 112.415 244.83C112.455 244.84 112.525 244.86 112.645 244.88C112.765 244.91 112.835 244.93 112.875 244.93C113.115 244.99 113.305 245.03 113.425 245.06C113.545 245.1 113.715 245.16 113.935 245.25C114.155 245.34 114.315 245.43 114.435 245.53C114.545 245.63 114.645 245.76 114.735 245.93C114.825 246.1 114.875 246.29 114.875 246.5C114.875 247 114.675 247.41 114.285 247.71C113.895 248.01 113.375 248.16 112.735 248.16C112.035 248.16 111.495 248.01 111.115 247.7C110.735 247.4 110.535 246.95 110.515 246.37H111.355C111.395 247.1 111.865 247.46 112.755 247.46C113.135 247.46 113.435 247.39 113.665 247.23C113.895 247.07 114.015 246.86 114.015 246.6C114.015 246.43 113.955 246.29 113.835 246.17C113.715 246.06 113.575 245.98 113.435 245.93C113.285 245.88 113.075 245.82 112.805 245.75C112.765 245.75 112.735 245.74 112.715 245.73C112.655 245.72 112.525 245.69 112.325 245.65C112.125 245.61 111.985 245.57 111.905 245.54C111.815 245.52 111.685 245.48 111.525 245.42C111.365 245.36 111.245 245.3 111.165 245.24C111.085 245.18 110.995 245.1 110.895 245C110.795 244.9 110.735 244.79 110.695 244.66C110.655 244.53 110.635 244.38 110.635 244.21C110.635 243.75 110.805 243.38 111.165 243.1C111.525 242.83 112.005 242.69 112.605 242.69C113.205 242.69 113.705 242.84 114.085 243.12C114.465 243.41 114.665 243.82 114.665 244.34Z" fill="black"/>
<path d="M19.82 55.31C19.74 56.21 19.42 56.92 18.88 57.42C18.34 57.92 17.62 58.17 16.73 58.17C15.72 58.17 14.92 57.84 14.33 57.17C13.73 56.5 13.44 55.59 13.44 54.45C13.44 53.39 13.73 52.5 14.33 51.79C14.93 51.08 15.75 50.72 16.81 50.72C17.56 50.72 18.22 50.93 18.79 51.33C19.37 51.74 19.69 52.3 19.75 53.02H18.81C18.71 52.56 18.47 52.19 18.11 51.93C17.75 51.67 17.31 51.53 16.78 51.53C15.99 51.53 15.39 51.81 14.99 52.37C14.59 52.93 14.39 53.62 14.39 54.44C14.39 55.35 14.6 56.06 15.03 56.58C15.45 57.1 16.04 57.36 16.78 57.36C17.38 57.36 17.87 57.19 18.23 56.84C18.59 56.49 18.8 55.98 18.88 55.31H19.82ZM23.1168 52.69C23.8968 52.69 24.4968 52.93 24.9368 53.41C25.3668 53.88 25.5868 54.54 25.5868 55.39C25.5868 56.27 25.3668 56.95 24.9368 57.43C24.4968 57.92 23.8868 58.16 23.1068 58.16C22.3168 58.16 21.6968 57.92 21.2568 57.44C20.8068 56.96 20.5868 56.3 20.5868 55.44C20.5868 54.6 20.8068 53.93 21.2668 53.43C21.7168 52.94 22.3368 52.69 23.1168 52.69ZM23.0968 53.41C22.5968 53.41 22.1968 53.59 21.9068 53.95C21.6068 54.32 21.4668 54.81 21.4668 55.42C21.4668 56.06 21.6068 56.55 21.8968 56.91C22.1868 57.27 22.5968 57.44 23.1168 57.44C23.6168 57.44 24.0068 57.26 24.2868 56.9C24.5668 56.54 24.7168 56.05 24.7168 55.41C24.7168 54.8 24.5668 54.31 24.2768 53.95C23.9868 53.59 23.5968 53.41 23.0968 53.41ZM27.399 52.84V53.64C27.819 53.02 28.409 52.7 29.159 52.7C29.759 52.7 30.199 52.86 30.469 53.18C30.739 53.5 30.879 53.96 30.879 54.57V58H30.029V54.96C30.029 54.71 30.019 54.51 29.999 54.37C29.979 54.23 29.939 54.07 29.879 53.91C29.809 53.75 29.699 53.63 29.539 53.55C29.379 53.48 29.169 53.44 28.919 53.44C27.939 53.44 27.449 54.06 27.449 55.3V58H26.599V52.84H27.399ZM31.6556 52.84H32.6056L34.0656 57.17L35.4856 52.84H36.3756L34.4856 58H33.5756L31.6556 52.84ZM41.5656 56.37C41.3056 57.57 40.5556 58.17 39.3156 58.17C38.5556 58.17 37.9556 57.94 37.5256 57.46C37.0956 56.99 36.8856 56.33 36.8856 55.49C36.8856 54.66 37.1056 53.99 37.5456 53.47C37.9856 52.95 38.5656 52.69 39.2856 52.69C40.0756 52.69 40.6656 52.96 41.0456 53.5C41.4256 54.04 41.6256 54.71 41.6256 55.53V55.65H37.7456L37.7356 55.71C37.7356 56.26 37.8756 56.69 38.1656 57C38.4456 57.32 38.8456 57.47 39.3456 57.47C39.7156 57.47 40.0056 57.39 40.2256 57.21C40.4456 57.04 40.6156 56.76 40.7356 56.37H41.5656ZM40.7456 54.96C40.7056 54.47 40.5556 54.09 40.2956 53.81C40.0356 53.53 39.6856 53.39 39.2656 53.39C38.8456 53.39 38.5056 53.53 38.2356 53.81C37.9556 54.09 37.7956 54.48 37.7456 54.96H40.7456ZM45.2167 52.72L45.2067 53.61C45.1467 53.6 45.0767 53.6 44.9867 53.6C44.7167 53.6 44.4767 53.64 44.2767 53.72C44.0767 53.8 43.9267 53.91 43.8067 54.04C43.6867 54.18 43.5967 54.34 43.5167 54.54C43.4467 54.74 43.3967 54.94 43.3767 55.14C43.3567 55.34 43.3467 55.57 43.3467 55.82V58H42.4967V52.84H43.3067V53.95C43.6467 53.13 44.2767 52.72 45.2167 52.72ZM48.0668 52.84V53.54H47.0368V56.55C47.0368 56.72 47.0368 56.83 47.0368 56.88C47.0368 56.94 47.0568 57.01 47.0968 57.1C47.1268 57.19 47.1868 57.25 47.2668 57.27C47.3468 57.3 47.4568 57.31 47.6068 57.31C47.7268 57.31 47.8868 57.3 48.0668 57.28V58.01C47.8268 58.04 47.6068 58.05 47.4168 58.05C47.1768 58.05 46.9768 58.03 46.8168 57.97C46.6568 57.92 46.5268 57.86 46.4468 57.79C46.3668 57.73 46.3068 57.61 46.2668 57.44C46.2268 57.27 46.1968 57.13 46.1968 57.01C46.1868 56.89 46.1868 56.7 46.1868 56.42V56.38V56.33V56.28V53.54H45.3168V52.84H46.1868V51.31H47.0368V52.84H48.0668ZM53.4211 56.37C53.1611 57.57 52.4111 58.17 51.1711 58.17C50.4111 58.17 49.8111 57.94 49.3811 57.46C48.9511 56.99 48.7411 56.33 48.7411 55.49C48.7411 54.66 48.9611 53.99 49.4011 53.47C49.8411 52.95 50.4211 52.69 51.1411 52.69C51.9311 52.69 52.5211 52.96 52.9011 53.5C53.2811 54.04 53.4811 54.71 53.4811 55.53V55.65H49.6011L49.5911 55.71C49.5911 56.26 49.7311 56.69 50.0211 57C50.3011 57.32 50.7011 57.47 51.2011 57.47C51.5711 57.47 51.8611 57.39 52.0811 57.21C52.3011 57.04 52.4711 56.76 52.5911 56.37H53.4211ZM52.6011 54.96C52.5611 54.47 52.4111 54.09 52.1511 53.81C51.8911 53.53 51.5411 53.39 51.1211 53.39C50.7011 53.39 50.3611 53.53 50.0911 53.81C49.8111 54.09 49.6511 54.48 49.6011 54.96H52.6011ZM59.0322 50.88V58H58.2322V57.24C57.9022 57.84 57.3322 58.14 56.5322 58.14C55.7922 58.14 55.2122 57.9 54.7822 57.41C54.3522 56.92 54.1422 56.25 54.1422 55.41C54.1422 54.63 54.3422 53.99 54.7422 53.47C55.1422 52.95 55.7322 52.69 56.4922 52.69C57.2322 52.69 57.7922 52.97 58.1822 53.53V50.88H59.0322ZM56.6022 53.42C56.1122 53.42 55.7222 53.6 55.4422 53.95C55.1622 54.31 55.0222 54.79 55.0222 55.39C55.0222 56.02 55.1622 56.52 55.4522 56.89C55.7422 57.26 56.1322 57.44 56.6222 57.44C57.1122 57.44 57.5022 57.27 57.7822 56.91C58.0622 56.55 58.2022 56.06 58.2022 55.42C58.2022 54.86 58.0622 54.38 57.8022 54C57.5422 53.62 57.1422 53.42 56.6022 53.42ZM29.4228 60.88V68H28.6228V67.24C28.2928 67.84 27.7228 68.14 26.9228 68.14C26.1828 68.14 25.6028 67.9 25.1728 67.41C24.7428 66.92 24.5328 66.25 24.5328 65.41C24.5328 64.63 24.7328 63.99 25.1328 63.47C25.5328 62.95 26.1228 62.69 26.8828 62.69C27.6228 62.69 28.1828 62.97 28.5728 63.53V60.88H29.4228ZM26.9928 63.42C26.5028 63.42 26.1128 63.6 25.8328 63.95C25.5528 64.31 25.4128 64.79 25.4128 65.39C25.4128 66.02 25.5528 66.52 25.8428 66.89C26.1328 67.26 26.5228 67.44 27.0128 67.44C27.5028 67.44 27.8928 67.27 28.1728 66.91C28.4528 66.55 28.5928 66.06 28.5928 65.42C28.5928 64.86 28.4528 64.38 28.1928 64C27.9328 63.62 27.5328 63.42 26.9928 63.42ZM35.2705 67.32V67.99C35.0905 68.05 34.9005 68.09 34.6905 68.09C34.2005 68.09 33.9505 67.83 33.9405 67.33C33.4505 67.87 32.8305 68.15 32.0705 68.15C31.5605 68.15 31.1605 68.02 30.8605 67.76C30.5605 67.5 30.4205 67.14 30.4205 66.69C30.4205 65.77 31.0305 65.23 32.2505 65.08C32.3305 65.06 32.4405 65.05 32.6005 65.04C33.1805 64.97 33.5305 64.89 33.6705 64.81C33.8205 64.7 33.9005 64.52 33.9005 64.26C33.9005 63.69 33.5105 63.41 32.7305 63.41C32.3305 63.41 32.0205 63.49 31.8205 63.65C31.6105 63.81 31.4905 64.08 31.4505 64.46H30.6205C30.6305 63.9 30.8305 63.47 31.2105 63.17C31.5905 62.86 32.1105 62.71 32.7805 62.71C33.5005 62.71 34.0405 62.87 34.4005 63.21C34.5105 63.31 34.5905 63.45 34.6505 63.63C34.7005 63.8 34.7305 63.94 34.7405 64.05C34.7405 64.16 34.7505 64.33 34.7505 64.55C34.7505 64.8 34.7405 65.18 34.7305 65.69C34.7105 66.21 34.7105 66.59 34.7105 66.84C34.7105 67.03 34.7305 67.16 34.7805 67.24C34.8305 67.32 34.9205 67.35 35.0605 67.35C35.1105 67.35 35.1805 67.34 35.2705 67.32ZM33.9005 65.33C33.8405 65.37 33.7705 65.41 33.7105 65.45C33.6405 65.48 33.5505 65.51 33.4505 65.53C33.3505 65.55 33.2805 65.56 33.2405 65.57C33.2005 65.58 33.1205 65.59 32.9805 65.61C32.8405 65.63 32.7605 65.64 32.7605 65.64C32.5505 65.66 32.4105 65.68 32.3505 65.69C32.2905 65.7 32.1705 65.73 31.9905 65.78C31.8105 65.82 31.6905 65.88 31.6205 65.94C31.5405 66 31.4705 66.08 31.4005 66.2C31.3305 66.32 31.3005 66.46 31.3005 66.62C31.3005 66.88 31.3905 67.09 31.5705 67.25C31.7505 67.4 32.0105 67.48 32.3305 67.48C32.7305 67.48 33.1005 67.36 33.4205 67.12C33.7405 66.88 33.9005 66.59 33.9005 66.27V65.33ZM38.2816 62.84V63.54H37.2516V66.55C37.2516 66.72 37.2516 66.83 37.2516 66.88C37.2516 66.94 37.2716 67.01 37.3116 67.1C37.3416 67.19 37.4016 67.25 37.4816 67.27C37.5616 67.3 37.6716 67.31 37.8216 67.31C37.9416 67.31 38.1016 67.3 38.2816 67.28V68.01C38.0416 68.04 37.8216 68.05 37.6316 68.05C37.3916 68.05 37.1916 68.03 37.0316 67.97C36.8716 67.92 36.7416 67.86 36.6616 67.79C36.5816 67.73 36.5216 67.61 36.4816 67.44C36.4416 67.27 36.4116 67.13 36.4116 67.01C36.4016 66.89 36.4016 66.7 36.4016 66.42V66.38V66.33V66.28V63.54H35.5316V62.84H36.4016V61.31H37.2516V62.84H38.2816ZM43.7959 67.32V67.99C43.6159 68.05 43.4259 68.09 43.2159 68.09C42.7259 68.09 42.4759 67.83 42.4659 67.33C41.9759 67.87 41.3559 68.15 40.5959 68.15C40.0859 68.15 39.6859 68.02 39.3859 67.76C39.0859 67.5 38.9459 67.14 38.9459 66.69C38.9459 65.77 39.5559 65.23 40.7759 65.08C40.8559 65.06 40.9659 65.05 41.1259 65.04C41.7059 64.97 42.0559 64.89 42.1959 64.81C42.3459 64.7 42.4259 64.52 42.4259 64.26C42.4259 63.69 42.0359 63.41 41.2559 63.41C40.8559 63.41 40.5459 63.49 40.3459 63.65C40.1359 63.81 40.0159 64.08 39.9759 64.46H39.1459C39.1559 63.9 39.3559 63.47 39.7359 63.17C40.1159 62.86 40.6359 62.71 41.3059 62.71C42.0259 62.71 42.5659 62.87 42.9259 63.21C43.0359 63.31 43.1159 63.45 43.1759 63.63C43.2259 63.8 43.2559 63.94 43.2659 64.05C43.2659 64.16 43.2759 64.33 43.2759 64.55C43.2759 64.8 43.2659 65.18 43.2559 65.69C43.2359 66.21 43.2359 66.59 43.2359 66.84C43.2359 67.03 43.2559 67.16 43.3059 67.24C43.3559 67.32 43.4459 67.35 43.5859 67.35C43.6359 67.35 43.7059 67.34 43.7959 67.32ZM42.4259 65.33C42.3659 65.37 42.2959 65.41 42.2359 65.45C42.1659 65.48 42.0759 65.51 41.9759 65.53C41.8759 65.55 41.8059 65.56 41.7659 65.57C41.7259 65.58 41.6459 65.59 41.5059 65.61C41.3659 65.63 41.2859 65.64 41.2859 65.64C41.0759 65.66 40.9359 65.68 40.8759 65.69C40.8159 65.7 40.6959 65.73 40.5159 65.78C40.3359 65.82 40.2159 65.88 40.1459 65.94C40.0659 66 39.9959 66.08 39.9259 66.2C39.8559 66.32 39.8259 66.46 39.8259 66.62C39.8259 66.88 39.9159 67.09 40.0959 67.25C40.2759 67.4 40.5359 67.48 40.8559 67.48C41.2559 67.48 41.6259 67.36 41.9459 67.12C42.2659 66.88 42.4259 66.59 42.4259 66.27V65.33Z" fill="black"/>
<rect x="66" y="20" width="77" height="82" fill="#D9D9D9"/>
<rect x="66" y="155" width="77" height="78" fill="#D9D9D9"/>
<rect x="66" y="85" width="77" height="82" fill="#D9D9D9"/>
<rect x="66" y="85" width="77" height="82" fill="#D9D9D9"/>
<g filter="url(#filter2_d_11_1004)">
<path fill-rule="evenodd" clip-rule="evenodd" d="M143 151H66V233H143V217H124C118.477 217 114 212.523 114 207V198H111.708C110.06 199.841 107.666 201 105 201C100.029 201 96 196.971 96 192C96 187.029 100.029 183 105 183C108.12 183 110.87 184.588 112.484 187H114V177C114 171.477 118.477 167 124 167H143V151Z" fill="#4285F4"/>
<path fill-rule="evenodd" clip-rule="evenodd" d="M143 85H66V167H143V151H124C118.477 151 114 146.523 114 141V132H111.708C110.06 133.841 107.666 135 105 135C100.029 135 96 130.971 96 126C96 121.029 100.029 117 105 117C108.12 117 110.87 118.588 112.484 121H114V111C114 105.477 118.477 101 124 101H143V85Z" fill="#4285F4"/>
<path fill-rule="evenodd" clip-rule="evenodd" d="M143 18H66V100H143V84H124C118.477 84 114 79.5228 114 74V65H111.708C110.06 66.8412 107.666 68 105 68C100.029 68 96 63.9706 96 59C96 54.0294 100.029 50 105 50C108.12 50 110.87 51.588 112.484 54H114V44C114 38.4772 118.477 34 124 34H143V18Z" fill="#4285F4"/>
<path d="M66 11H143V34H66V11Z" fill="#4285F4"/>
</g>
<line x1="88.5" y1="63" x2="88.5" y2="126" stroke="white"/>
<line x1="88" y1="63.4403" x2="99" y2="63.4403" stroke="white"/>
<line x1="88.5" y1="63" x2="88.5" y2="126" stroke="white"/>
<line x1="88" y1="63.4403" x2="99" y2="63.4403" stroke="white"/>
<line x1="88" y1="125.5" x2="98" y2="125.5" stroke="white"/>
<line x1="88.5" y1="127" x2="88.5" y2="190" stroke="white"/>
<line x1="88" y1="127.44" x2="101" y2="127.44" stroke="white"/>
<line x1="88" y1="189.5" x2="99.8182" y2="189.5" stroke="white"/>
<line x1="88.5" y1="192" x2="88.5" y2="233" stroke="white"/>
<line x1="88" y1="192.112" x2="100" y2="192.112" stroke="white"/>
<line x1="66" y1="58.5" x2="99" y2="58.5" stroke="white"/>
<g filter="url(#filter3_d_11_1004)">
<path d="M115.5 46C115.5 40.7533 119.753 36.5 125 36.5H190.5V80.5H125C119.753 80.5 115.5 76.2467 115.5 71V46Z" fill="white" stroke="#D9D9D9"/>
<circle cx="105" cy="59" r="7" fill="white"/>
<circle cx="105" cy="59" r="7.5" stroke="#8C8787" stroke-opacity="0.3"/>
<mask id="path-36-inside-3_11_1004" fill="white">
<path d="M111 56C111 55.4477 111.448 55 112 55H116V63H112C111.448 63 111 62.5523 111 62V56Z"/>
</mask>
<path d="M111 56C111 55.4477 111.448 55 112 55H116V63H112C111.448 63 111 62.5523 111 62V56Z" fill="white"/>
<path d="M111 56C111 54.8954 111.895 54 113 54H116V56H112C111.448 56 111 56 111 56ZM116 64H113C111.895 64 111 63.1046 111 62C111 62 111.448 62 112 62H116V64ZM111 63V55V63ZM116 55V63V55Z" fill="#8C8787" fill-opacity="0.3" mask="url(#path-36-inside-3_11_1004)"/>
</g>
<g filter="url(#filter4_d_11_1004)">
<path d="M115.5 113C115.5 107.753 119.753 103.5 125 103.5H190.5V147.5H125C119.753 147.5 115.5 143.247 115.5 138V113Z" fill="white" stroke="#D9D9D9"/>
<circle cx="105" cy="126" r="7" fill="white"/>
<circle cx="105" cy="126" r="7.5" stroke="#8C8787" stroke-opacity="0.3"/>
<mask id="path-41-inside-4_11_1004" fill="white">
<path d="M111 123C111 122.448 111.448 122 112 122H116V130H112C111.448 130 111 129.552 111 129V123Z"/>
</mask>
<path d="M111 123C111 122.448 111.448 122 112 122H116V130H112C111.448 130 111 129.552 111 129V123Z" fill="white"/>
<path d="M111 123C111 121.895 111.895 121 113 121H116V123H112C111.448 123 111 123 111 123ZM116 131H113C111.895 131 111 130.105 111 129C111 129 111.448 129 112 129H116V131ZM111 130V122V130ZM116 122V130V122Z" fill="#8C8787" fill-opacity="0.3" mask="url(#path-41-inside-4_11_1004)"/>
</g>
<g filter="url(#filter5_d_11_1004)">
<path d="M115.5 179C115.5 173.753 119.753 169.5 125 169.5H190.5V213.5H125C119.753 213.5 115.5 209.247 115.5 204V179Z" fill="white" stroke="#D9D9D9"/>
<circle cx="105" cy="192" r="7" fill="white"/>
<circle cx="105" cy="192" r="7.5" stroke="#8C8787" stroke-opacity="0.3"/>
<mask id="path-46-inside-5_11_1004" fill="white">
<path d="M111 189C111 188.448 111.448 188 112 188H116V196H112C111.448 196 111 195.552 111 195V189Z"/>
</mask>
<path d="M111 189C111 188.448 111.448 188 112 188H116V196H112C111.448 196 111 195.552 111 195V189Z" fill="white"/>
<path d="M111 189C111 187.895 111.895 187 113 187H116V189H112C111.448 189 111 189 111 189ZM116 197H113C111.895 197 111 196.105 111 195C111 195 111.448 195 112 195H116V197ZM111 196V188V196ZM116 188V196V188Z" fill="#8C8787" fill-opacity="0.3" mask="url(#path-46-inside-5_11_1004)"/>
</g>
<path d="M74.83 17.97L73.91 17.98C73.81 17.01 73.22 16.53 72.14 16.53C71.63 16.53 71.23 16.63 70.95 16.84C70.67 17.04 70.53 17.33 70.53 17.71C70.53 17.84 70.55 17.96 70.59 18.06C70.63 18.16 70.7 18.24 70.8 18.32C70.9 18.4 70.99 18.46 71.07 18.52C71.16 18.57 71.3 18.62 71.48 18.67C71.67 18.73 71.82 18.77 71.93 18.79C72.05 18.81 72.22 18.85 72.46 18.9C72.76 18.96 73 19.02 73.19 19.07C73.39 19.12 73.62 19.2 73.88 19.31C74.15 19.43 74.36 19.55 74.52 19.69C74.68 19.83 74.81 20.01 74.93 20.23C75.05 20.46 75.1 20.72 75.1 21C75.1 21.5 74.96 21.92 74.68 22.26C74.4 22.6 74.06 22.83 73.66 22.96C73.26 23.1 72.82 23.16 72.33 23.16C71.44 23.16 70.73 22.95 70.19 22.53C69.65 22.11 69.38 21.48 69.38 20.65H70.29C70.31 21.26 70.52 21.7 70.9 21.98C71.29 22.26 71.79 22.4 72.41 22.4C72.9 22.4 73.32 22.29 73.67 22.09C74.01 21.89 74.19 21.56 74.19 21.1C74.19 20.88 74.14 20.7 74.05 20.55C73.95 20.4 73.81 20.28 73.61 20.18C73.41 20.08 73.21 20.01 73.01 19.95C72.81 19.89 72.54 19.82 72.22 19.75C72.17 19.74 72.14 19.73 72.12 19.72C71.38 19.56 70.9 19.42 70.68 19.32C69.98 19.02 69.64 18.51 69.64 17.77C69.64 17.09 69.89 16.59 70.39 16.25C70.89 15.91 71.5 15.74 72.21 15.74C72.99 15.74 73.62 15.93 74.08 16.3C74.55 16.68 74.8 17.23 74.83 17.97ZM78.3344 17.84V18.54H77.3044V21.55C77.3044 21.72 77.3044 21.83 77.3044 21.88C77.3044 21.94 77.3244 22.01 77.3644 22.1C77.3944 22.19 77.4544 22.25 77.5344 22.27C77.6144 22.3 77.7244 22.31 77.8744 22.31C77.9944 22.31 78.1544 22.3 78.3344 22.28V23.01C78.0944 23.04 77.8744 23.05 77.6844 23.05C77.4444 23.05 77.2444 23.03 77.0844 22.97C76.9244 22.92 76.7944 22.86 76.7144 22.79C76.6344 22.73 76.5744 22.61 76.5344 22.44C76.4944 22.27 76.4644 22.13 76.4644 22.01C76.4544 21.89 76.4544 21.7 76.4544 21.42V21.38V21.33V21.28V18.54H75.5844V17.84H76.4544V16.31H77.3044V17.84H78.3344ZM83.8487 22.32V22.99C83.6687 23.05 83.4787 23.09 83.2687 23.09C82.7787 23.09 82.5287 22.83 82.5187 22.33C82.0287 22.87 81.4087 23.15 80.6487 23.15C80.1387 23.15 79.7387 23.02 79.4387 22.76C79.1387 22.5 78.9987 22.14 78.9987 21.69C78.9987 20.77 79.6087 20.23 80.8287 20.08C80.9087 20.06 81.0187 20.05 81.1787 20.04C81.7587 19.97 82.1087 19.89 82.2487 19.81C82.3987 19.7 82.4787 19.52 82.4787 19.26C82.4787 18.69 82.0887 18.41 81.3087 18.41C80.9087 18.41 80.5987 18.49 80.3987 18.65C80.1887 18.81 80.0687 19.08 80.0287 19.46H79.1987C79.2087 18.9 79.4087 18.47 79.7887 18.17C80.1687 17.86 80.6887 17.71 81.3587 17.71C82.0787 17.71 82.6187 17.87 82.9787 18.21C83.0887 18.31 83.1687 18.45 83.2287 18.63C83.2787 18.8 83.3087 18.94 83.3187 19.05C83.3187 19.16 83.3287 19.33 83.3287 19.55C83.3287 19.8 83.3187 20.18 83.3087 20.69C83.2887 21.21 83.2887 21.59 83.2887 21.84C83.2887 22.03 83.3087 22.16 83.3587 22.24C83.4087 22.32 83.4987 22.35 83.6387 22.35C83.6887 22.35 83.7587 22.34 83.8487 22.32ZM82.4787 20.33C82.4187 20.37 82.3487 20.41 82.2887 20.45C82.2187 20.48 82.1287 20.51 82.0287 20.53C81.9287 20.55 81.8587 20.56 81.8187 20.57C81.7787 20.58 81.6987 20.59 81.5587 20.61C81.4187 20.63 81.3387 20.64 81.3387 20.64C81.1287 20.66 80.9887 20.68 80.9287 20.69C80.8687 20.7 80.7487 20.73 80.5687 20.78C80.3887 20.82 80.2687 20.88 80.1987 20.94C80.1187 21 80.0487 21.08 79.9787 21.2C79.9087 21.32 79.8787 21.46 79.8787 21.62C79.8787 21.88 79.9687 22.09 80.1487 22.25C80.3287 22.4 80.5887 22.48 80.9087 22.48C81.3087 22.48 81.6787 22.36 81.9987 22.12C82.3187 21.88 82.4787 21.59 82.4787 21.27V20.33ZM85.4498 17.84V18.64C85.8698 18.02 86.4598 17.7 87.2098 17.7C87.8098 17.7 88.2498 17.86 88.5198 18.18C88.7898 18.5 88.9298 18.96 88.9298 19.57V23H88.0798V19.96C88.0798 19.71 88.0698 19.51 88.0498 19.37C88.0298 19.23 87.9898 19.07 87.9298 18.91C87.8598 18.75 87.7498 18.63 87.5898 18.55C87.4298 18.48 87.2198 18.44 86.9698 18.44C85.9898 18.44 85.4998 19.06 85.4998 20.3V23H84.6498V17.84H85.4498ZM94.8564 15.88V23H94.0564V22.24C93.7264 22.84 93.1564 23.14 92.3564 23.14C91.6164 23.14 91.0364 22.9 90.6064 22.41C90.1764 21.92 89.9664 21.25 89.9664 20.41C89.9664 19.63 90.1664 18.99 90.5664 18.47C90.9664 17.95 91.5564 17.69 92.3164 17.69C93.0564 17.69 93.6164 17.97 94.0064 18.53V15.88H94.8564ZM92.4264 18.42C91.9364 18.42 91.5464 18.6 91.2664 18.95C90.9864 19.31 90.8464 19.79 90.8464 20.39C90.8464 21.02 90.9864 21.52 91.2764 21.89C91.5664 22.26 91.9564 22.44 92.4464 22.44C92.9364 22.44 93.3264 22.27 93.6064 21.91C93.8864 21.55 94.0264 21.06 94.0264 20.42C94.0264 19.86 93.8864 19.38 93.6264 19C93.3664 18.62 92.9664 18.42 92.4264 18.42ZM100.704 22.32V22.99C100.524 23.05 100.334 23.09 100.124 23.09C99.6341 23.09 99.3841 22.83 99.3741 22.33C98.8841 22.87 98.2641 23.15 97.5041 23.15C96.9941 23.15 96.5941 23.02 96.2941 22.76C95.9941 22.5 95.8541 22.14 95.8541 21.69C95.8541 20.77 96.4641 20.23 97.6841 20.08C97.7641 20.06 97.8741 20.05 98.0341 20.04C98.6141 19.97 98.9641 19.89 99.1041 19.81C99.2541 19.7 99.3341 19.52 99.3341 19.26C99.3341 18.69 98.9441 18.41 98.1641 18.41C97.7641 18.41 97.4541 18.49 97.2541 18.65C97.0441 18.81 96.9241 19.08 96.8841 19.46H96.0541C96.0641 18.9 96.2641 18.47 96.6441 18.17C97.0241 17.86 97.5441 17.71 98.2141 17.71C98.9341 17.71 99.4741 17.87 99.8341 18.21C99.9441 18.31 100.024 18.45 100.084 18.63C100.134 18.8 100.164 18.94 100.174 19.05C100.174 19.16 100.184 19.33 100.184 19.55C100.184 19.8 100.174 20.18 100.164 20.69C100.144 21.21 100.144 21.59 100.144 21.84C100.144 22.03 100.164 22.16 100.214 22.24C100.264 22.32 100.354 22.35 100.494 22.35C100.544 22.35 100.614 22.34 100.704 22.32ZM99.3341 20.33C99.2741 20.37 99.2041 20.41 99.1441 20.45C99.0741 20.48 98.9841 20.51 98.8841 20.53C98.7841 20.55 98.7141 20.56 98.6741 20.57C98.6341 20.58 98.5541 20.59 98.4141 20.61C98.2741 20.63 98.1941 20.64 98.1941 20.64C97.9841 20.66 97.8441 20.68 97.7841 20.69C97.7241 20.7 97.6041 20.73 97.4241 20.78C97.2441 20.82 97.1241 20.88 97.0541 20.94C96.9741 21 96.9041 21.08 96.8341 21.2C96.7641 21.32 96.7341 21.46 96.7341 21.62C96.7341 21.88 96.8241 22.09 97.0041 22.25C97.1841 22.4 97.4441 22.48 97.7641 22.48C98.1641 22.48 98.5341 22.36 98.8541 22.12C99.1741 21.88 99.3341 21.59 99.3341 21.27V20.33ZM104.195 17.72L104.185 18.61C104.125 18.6 104.055 18.6 103.965 18.6C103.695 18.6 103.455 18.64 103.255 18.72C103.055 18.8 102.905 18.91 102.785 19.04C102.665 19.18 102.575 19.34 102.495 19.54C102.425 19.74 102.375 19.94 102.355 20.14C102.335 20.34 102.325 20.57 102.325 20.82V23H101.475V17.84H102.285V18.95C102.625 18.13 103.255 17.72 104.195 17.72ZM109.31 15.88V23H108.51V22.24C108.18 22.84 107.61 23.14 106.81 23.14C106.07 23.14 105.49 22.9 105.06 22.41C104.63 21.92 104.42 21.25 104.42 20.41C104.42 19.63 104.62 18.99 105.02 18.47C105.42 17.95 106.01 17.69 106.77 17.69C107.51 17.69 108.07 17.97 108.46 18.53V15.88H109.31ZM106.88 18.42C106.39 18.42 106 18.6 105.72 18.95C105.44 19.31 105.3 19.79 105.3 20.39C105.3 21.02 105.44 21.52 105.73 21.89C106.02 22.26 106.41 22.44 106.9 22.44C107.39 22.44 107.78 22.27 108.06 21.91C108.34 21.55 108.48 21.06 108.48 20.42C108.48 19.86 108.34 19.38 108.08 19C107.82 18.62 107.42 18.42 106.88 18.42ZM110.747 15.88H112.047L114.337 21.91L116.547 15.88H117.857V23H116.967V17.06L114.737 23H113.917L111.647 17.06V23H110.747V15.88ZM121.558 17.69C122.338 17.69 122.938 17.93 123.378 18.41C123.808 18.88 124.028 19.54 124.028 20.39C124.028 21.27 123.808 21.95 123.378 22.43C122.938 22.92 122.328 23.16 121.548 23.16C120.758 23.16 120.138 22.92 119.698 22.44C119.248 21.96 119.028 21.3 119.028 20.44C119.028 19.6 119.248 18.93 119.708 18.43C120.158 17.94 120.778 17.69 121.558 17.69ZM121.538 18.41C121.038 18.41 120.638 18.59 120.348 18.95C120.048 19.32 119.908 19.81 119.908 20.42C119.908 21.06 120.048 21.55 120.338 21.91C120.628 22.27 121.038 22.44 121.558 22.44C122.058 22.44 122.448 22.26 122.728 21.9C123.008 21.54 123.158 21.05 123.158 20.41C123.158 19.8 123.008 19.31 122.718 18.95C122.428 18.59 122.038 18.41 121.538 18.41ZM129.69 15.88V23H128.89V22.24C128.56 22.84 127.99 23.14 127.19 23.14C126.45 23.14 125.87 22.9 125.44 22.41C125.01 21.92 124.8 21.25 124.8 20.41C124.8 19.63 125 18.99 125.4 18.47C125.8 17.95 126.39 17.69 127.15 17.69C127.89 17.69 128.45 17.97 128.84 18.53V15.88L129.69 15.88ZM127.26 18.42C126.77 18.42 126.38 18.6 126.1 18.95C125.82 19.31 125.68 19.79 125.68 20.39C125.68 21.02 125.82 21.52 126.11 21.89C126.4 22.26 126.79 22.44 127.28 22.44C127.77 22.44 128.16 22.27 128.44 21.91C128.72 21.55 128.86 21.06 128.86 20.42C128.86 19.86 128.72 19.38 128.46 19C128.2 18.62 127.8 18.42 127.26 18.42ZM135.378 21.37C135.118 22.57 134.368 23.17 133.128 23.17C132.368 23.17 131.768 22.94 131.338 22.46C130.908 21.99 130.698 21.33 130.698 20.49C130.698 19.66 130.918 18.99 131.358 18.47C131.798 17.95 132.378 17.69 133.098 17.69C133.888 17.69 134.478 17.96 134.858 18.5C135.238 19.04 135.438 19.71 135.438 20.53V20.65H131.558L131.548 20.71C131.548 21.26 131.688 21.69 131.978 22C132.258 22.32 132.658 22.47 133.158 22.47C133.528 22.47 133.818 22.39 134.038 22.21C134.258 22.04 134.428 21.76 134.548 21.37H135.378ZM134.558 19.96C134.518 19.47 134.368 19.09 134.108 18.81C133.848 18.53 133.498 18.39 133.078 18.39C132.658 18.39 132.318 18.53 132.048 18.81C131.768 19.09 131.608 19.48 131.558 19.96H134.558ZM137.239 15.88V23H136.379V15.88H137.239Z" fill="white"/>
<path d="M142.056 49.88H144.366C145.576 49.88 146.466 50.16 147.036 50.72C147.616 51.28 147.896 52.17 147.896 53.38C147.896 54.58 147.636 55.48 147.096 56.09C146.566 56.7 145.716 57 144.546 57H142.056V49.88ZM142.986 50.69L142.996 56.2H144.426C145.316 56.2 145.966 55.98 146.366 55.54C146.766 55.1 146.966 54.42 146.966 53.49C146.966 52.52 146.776 51.81 146.376 51.36C145.986 50.92 145.316 50.69 144.376 50.69H142.986ZM153.517 56.32V56.99C153.337 57.05 153.147 57.09 152.937 57.09C152.447 57.09 152.197 56.83 152.187 56.33C151.697 56.87 151.077 57.15 150.317 57.15C149.807 57.15 149.407 57.02 149.107 56.76C148.807 56.5 148.667 56.14 148.667 55.69C148.667 54.77 149.277 54.23 150.497 54.08C150.577 54.06 150.687 54.05 150.847 54.04C151.427 53.97 151.777 53.89 151.917 53.81C152.067 53.7 152.147 53.52 152.147 53.26C152.147 52.69 151.757 52.41 150.977 52.41C150.577 52.41 150.267 52.49 150.067 52.65C149.857 52.81 149.737 53.08 149.697 53.46H148.867C148.877 52.9 149.077 52.47 149.457 52.17C149.837 51.86 150.357 51.71 151.027 51.71C151.747 51.71 152.287 51.87 152.647 52.21C152.757 52.31 152.837 52.45 152.897 52.63C152.947 52.8 152.977 52.94 152.987 53.05C152.987 53.16 152.997 53.33 152.997 53.55C152.997 53.8 152.987 54.18 152.977 54.69C152.957 55.21 152.957 55.59 152.957 55.84C152.957 56.03 152.977 56.16 153.027 56.24C153.077 56.32 153.167 56.35 153.307 56.35C153.357 56.35 153.427 56.34 153.517 56.32ZM152.147 54.33C152.087 54.37 152.017 54.41 151.957 54.45C151.887 54.48 151.797 54.51 151.697 54.53C151.597 54.55 151.527 54.56 151.487 54.57C151.447 54.58 151.367 54.59 151.227 54.61C151.087 54.63 151.007 54.64 151.007 54.64C150.797 54.66 150.657 54.68 150.597 54.69C150.537 54.7 150.417 54.73 150.237 54.78C150.057 54.82 149.937 54.88 149.867 54.94C149.787 55 149.717 55.08 149.647 55.2C149.577 55.32 149.547 55.46 149.547 55.62C149.547 55.88 149.637 56.09 149.817 56.25C149.997 56.4 150.257 56.48 150.577 56.48C150.977 56.48 151.347 56.36 151.667 56.12C151.987 55.88 152.147 55.59 152.147 55.27V54.33ZM156.528 51.84V52.54H155.498V55.55C155.498 55.72 155.498 55.83 155.498 55.88C155.498 55.94 155.518 56.01 155.558 56.1C155.588 56.19 155.648 56.25 155.728 56.27C155.808 56.3 155.918 56.31 156.068 56.31C156.188 56.31 156.348 56.3 156.528 56.28V57.01C156.288 57.04 156.068 57.05 155.878 57.05C155.638 57.05 155.438 57.03 155.278 56.97C155.118 56.92 154.988 56.86 154.908 56.79C154.828 56.73 154.768 56.61 154.728 56.44C154.688 56.27 154.658 56.13 154.658 56.01C154.648 55.89 154.648 55.7 154.648 55.42V55.38V55.33V55.28V52.54H153.778V51.84H154.648V50.31H155.498V51.84H156.528ZM162.042 56.32V56.99C161.862 57.05 161.672 57.09 161.462 57.09C160.972 57.09 160.722 56.83 160.712 56.33C160.222 56.87 159.602 57.15 158.842 57.15C158.332 57.15 157.932 57.02 157.632 56.76C157.332 56.5 157.192 56.14 157.192 55.69C157.192 54.77 157.802 54.23 159.022 54.08C159.102 54.06 159.212 54.05 159.372 54.04C159.952 53.97 160.302 53.89 160.442 53.81C160.592 53.7 160.672 53.52 160.672 53.26C160.672 52.69 160.282 52.41 159.502 52.41C159.102 52.41 158.792 52.49 158.592 52.65C158.382 52.81 158.262 53.08 158.222 53.46H157.392C157.402 52.9 157.602 52.47 157.982 52.17C158.362 51.86 158.882 51.71 159.552 51.71C160.272 51.71 160.812 51.87 161.172 52.21C161.282 52.31 161.362 52.45 161.422 52.63C161.472 52.8 161.502 52.94 161.512 53.05C161.512 53.16 161.522 53.33 161.522 53.55C161.522 53.8 161.512 54.18 161.502 54.69C161.482 55.21 161.482 55.59 161.482 55.84C161.482 56.03 161.502 56.16 161.552 56.24C161.602 56.32 161.692 56.35 161.832 56.35C161.882 56.35 161.952 56.34 162.042 56.32ZM160.672 54.33C160.612 54.37 160.542 54.41 160.482 54.45C160.412 54.48 160.322 54.51 160.222 54.53C160.122 54.55 160.052 54.56 160.012 54.57C159.972 54.58 159.892 54.59 159.752 54.61C159.612 54.63 159.532 54.64 159.532 54.64C159.322 54.66 159.182 54.68 159.122 54.69C159.062 54.7 158.942 54.73 158.762 54.78C158.582 54.82 158.462 54.88 158.392 54.94C158.312 55 158.242 55.08 158.172 55.2C158.102 55.32 158.072 55.46 158.072 55.62C158.072 55.88 158.162 56.09 158.342 56.25C158.522 56.4 158.782 56.48 159.102 56.48C159.502 56.48 159.872 56.36 160.192 56.12C160.512 55.88 160.672 55.59 160.672 55.27V54.33ZM119.79 59.88H122.92C124.51 59.88 125.31 60.54 125.31 61.85C125.31 62.27 125.19 62.63 124.97 62.95C124.75 63.27 124.45 63.48 124.09 63.58C124.33 63.64 124.52 63.71 124.67 63.81C124.81 63.91 124.92 64.05 124.99 64.23C125.05 64.41 125.1 64.57 125.12 64.71C125.14 64.85 125.15 65.06 125.17 65.33C125.17 65.36 125.17 65.43 125.18 65.53C125.18 65.63 125.19 65.7 125.19 65.74C125.19 65.78 125.19 65.84 125.2 65.93C125.21 66.03 125.22 66.1 125.23 66.14C125.23 66.19 125.24 66.25 125.26 66.33C125.27 66.41 125.29 66.48 125.31 66.53C125.33 66.58 125.35 66.64 125.38 66.7C125.4 66.76 125.43 66.82 125.47 66.87C125.5 66.92 125.54 66.96 125.58 67H124.5C124.45 66.94 124.41 66.85 124.38 66.75C124.35 66.65 124.33 66.54 124.32 66.4C124.3 66.26 124.29 66.15 124.29 66.07C124.28 65.99 124.27 65.86 124.27 65.7C124.26 65.54 124.26 65.45 124.26 65.43C124.22 64.83 124.1 64.42 123.88 64.22C123.66 64.02 123.24 63.92 122.6 63.92H120.73V67H119.79V59.88ZM120.73 60.68V63.17H122.5C122.72 63.17 122.9 63.17 123.05 63.15C123.2 63.14 123.37 63.11 123.55 63.06C123.73 63.02 123.87 62.95 123.98 62.86C124.09 62.78 124.18 62.65 124.26 62.49C124.33 62.33 124.37 62.14 124.37 61.91C124.37 61.43 124.22 61.11 123.93 60.94C123.64 60.77 123.25 60.68 122.75 60.68H120.73ZM130.896 65.37C130.636 66.57 129.886 67.17 128.646 67.17C127.886 67.17 127.286 66.94 126.856 66.46C126.426 65.99 126.216 65.33 126.216 64.49C126.216 63.66 126.436 62.99 126.876 62.47C127.316 61.95 127.896 61.69 128.616 61.69C129.406 61.69 129.996 61.96 130.376 62.5C130.756 63.04 130.956 63.71 130.956 64.53V64.65H127.076L127.066 64.71C127.066 65.26 127.206 65.69 127.496 66C127.776 66.32 128.176 66.47 128.676 66.47C129.046 66.47 129.336 66.39 129.556 66.21C129.776 66.04 129.946 65.76 130.066 65.37H130.896ZM130.076 63.96C130.036 63.47 129.886 63.09 129.626 62.81C129.366 62.53 129.016 62.39 128.596 62.39C128.176 62.39 127.836 62.53 127.566 62.81C127.286 63.09 127.126 63.48 127.076 63.96H130.076ZM132.657 61.84V62.57C133.027 61.98 133.607 61.68 134.397 61.68C135.117 61.68 135.687 61.93 136.107 62.41C136.527 62.9 136.747 63.56 136.747 64.39C136.747 65.23 136.537 65.89 136.117 66.39C135.697 66.89 135.137 67.13 134.437 67.13C133.697 67.13 133.117 66.85 132.707 66.28V68.99H131.857V61.84H132.657ZM134.267 62.39C133.767 62.39 133.377 62.57 133.097 62.93C132.817 63.29 132.677 63.78 132.677 64.4C132.677 65.03 132.817 65.52 133.107 65.88C133.397 66.24 133.797 66.42 134.297 66.42C134.777 66.42 135.167 66.24 135.447 65.88C135.727 65.52 135.867 65.03 135.867 64.41C135.867 63.78 135.717 63.29 135.437 62.93C135.157 62.57 134.767 62.39 134.267 62.39ZM140.475 61.72L140.465 62.61C140.405 62.6 140.335 62.6 140.245 62.6C139.975 62.6 139.735 62.64 139.535 62.72C139.335 62.8 139.185 62.91 139.065 63.04C138.945 63.18 138.855 63.34 138.775 63.54C138.705 63.74 138.655 63.94 138.635 64.14C138.615 64.34 138.605 64.57 138.605 64.82V67H137.755V61.84H138.565V62.95C138.905 62.13 139.535 61.72 140.475 61.72ZM145.349 65.37C145.089 66.57 144.339 67.17 143.099 67.17C142.339 67.17 141.739 66.94 141.309 66.46C140.879 65.99 140.669 65.33 140.669 64.49C140.669 63.66 140.889 62.99 141.329 62.47C141.769 61.95 142.349 61.69 143.069 61.69C143.859 61.69 144.449 61.96 144.829 62.5C145.209 63.04 145.409 63.71 145.409 64.53V64.65H141.529L141.519 64.71C141.519 65.26 141.659 65.69 141.949 66C142.229 66.32 142.629 66.47 143.129 66.47C143.499 66.47 143.789 66.39 144.009 66.21C144.229 66.04 144.399 65.76 144.519 65.37H145.349ZM144.529 63.96C144.489 63.47 144.339 63.09 144.079 62.81C143.819 62.53 143.469 62.39 143.049 62.39C142.629 62.39 142.289 62.53 142.019 62.81C141.739 63.09 141.579 63.48 141.529 63.96H144.529ZM150.14 63.34H149.29C149.23 62.72 148.81 62.4 148.03 62.4C147.7 62.4 147.44 62.47 147.26 62.59C147.07 62.72 146.98 62.89 146.98 63.1C146.98 63.16 146.98 63.22 147 63.28C147.01 63.34 147.03 63.39 147.07 63.43C147.11 63.47 147.14 63.51 147.17 63.54C147.2 63.58 147.25 63.61 147.32 63.64C147.39 63.67 147.44 63.69 147.48 63.71C147.52 63.73 147.58 63.76 147.68 63.78C147.78 63.8 147.85 63.82 147.89 63.83C147.93 63.84 148 63.86 148.12 63.88C148.24 63.91 148.31 63.93 148.35 63.93C148.59 63.99 148.78 64.03 148.9 64.06C149.02 64.1 149.19 64.16 149.41 64.25C149.63 64.34 149.79 64.43 149.91 64.53C150.02 64.63 150.12 64.76 150.21 64.93C150.3 65.1 150.35 65.29 150.35 65.5C150.35 66 150.15 66.41 149.76 66.71C149.37 67.01 148.85 67.16 148.21 67.16C147.51 67.16 146.97 67.01 146.59 66.7C146.21 66.4 146.01 65.95 145.99 65.37H146.83C146.87 66.1 147.34 66.46 148.23 66.46C148.61 66.46 148.91 66.39 149.14 66.23C149.37 66.07 149.49 65.86 149.49 65.6C149.49 65.43 149.43 65.29 149.31 65.17C149.19 65.06 149.05 64.98 148.91 64.93C148.76 64.88 148.55 64.82 148.28 64.75C148.24 64.75 148.21 64.74 148.19 64.73C148.13 64.72 148 64.69 147.8 64.65C147.6 64.61 147.46 64.57 147.38 64.54C147.29 64.52 147.16 64.48 147 64.42C146.84 64.36 146.72 64.3 146.64 64.24C146.56 64.18 146.47 64.1 146.37 64C146.27 63.9 146.21 63.79 146.17 63.66C146.13 63.53 146.11 63.38 146.11 63.21C146.11 62.75 146.28 62.38 146.64 62.1C147 61.83 147.48 61.69 148.08 61.69C148.68 61.69 149.18 61.84 149.56 62.12C149.94 62.41 150.14 62.82 150.14 63.34ZM155.72 65.37C155.46 66.57 154.71 67.17 153.47 67.17C152.71 67.17 152.11 66.94 151.68 66.46C151.25 65.99 151.04 65.33 151.04 64.49C151.04 63.66 151.26 62.99 151.7 62.47C152.14 61.95 152.72 61.69 153.44 61.69C154.23 61.69 154.82 61.96 155.2 62.5C155.58 63.04 155.78 63.71 155.78 64.53V64.65H151.9L151.89 64.71C151.89 65.26 152.03 65.69 152.32 66C152.6 66.32 153 66.47 153.5 66.47C153.87 66.47 154.16 66.39 154.38 66.21C154.6 66.04 154.77 65.76 154.89 65.37H155.72ZM154.9 63.96C154.86 63.47 154.71 63.09 154.45 62.81C154.19 62.53 153.84 62.39 153.42 62.39C153 62.39 152.66 62.53 152.39 62.81C152.11 63.09 151.95 63.48 151.9 63.96H154.9ZM157.481 61.84V62.64C157.901 62.02 158.491 61.7 159.241 61.7C159.841 61.7 160.281 61.86 160.551 62.18C160.821 62.5 160.961 62.96 160.961 63.57V67H160.111V63.96C160.111 63.71 160.101 63.51 160.081 63.37C160.061 63.23 160.021 63.07 159.961 62.91C159.891 62.75 159.781 62.63 159.621 62.55C159.461 62.48 159.251 62.44 159.001 62.44C158.021 62.44 157.531 63.06 157.531 64.3V67H156.681V61.84H157.481ZM164.448 61.84V62.54H163.418V65.55C163.418 65.72 163.418 65.83 163.418 65.88C163.418 65.94 163.438 66.01 163.478 66.1C163.508 66.19 163.568 66.25 163.648 66.27C163.728 66.3 163.838 66.31 163.988 66.31C164.108 66.31 164.268 66.3 164.448 66.28V67.01C164.208 67.04 163.988 67.05 163.798 67.05C163.558 67.05 163.358 67.03 163.198 66.97C163.038 66.92 162.908 66.86 162.828 66.79C162.748 66.73 162.688 66.61 162.648 66.44C162.608 66.27 162.578 66.13 162.578 66.01C162.568 65.89 162.568 65.7 162.568 65.42V65.38V65.33V65.28V62.54H161.698V61.84H162.568V60.31H163.418V61.84H164.448ZM169.962 66.32V66.99C169.782 67.05 169.592 67.09 169.382 67.09C168.892 67.09 168.642 66.83 168.632 66.33C168.142 66.87 167.522 67.15 166.762 67.15C166.252 67.15 165.852 67.02 165.552 66.76C165.252 66.5 165.112 66.14 165.112 65.69C165.112 64.77 165.722 64.23 166.942 64.08C167.022 64.06 167.132 64.05 167.292 64.04C167.872 63.97 168.222 63.89 168.362 63.81C168.512 63.7 168.592 63.52 168.592 63.26C168.592 62.69 168.202 62.41 167.422 62.41C167.022 62.41 166.712 62.49 166.512 62.65C166.302 62.81 166.182 63.08 166.142 63.46H165.312C165.322 62.9 165.522 62.47 165.902 62.17C166.282 61.86 166.802 61.71 167.472 61.71C168.192 61.71 168.732 61.87 169.092 62.21C169.202 62.31 169.282 62.45 169.342 62.63C169.392 62.8 169.422 62.94 169.432 63.05C169.432 63.16 169.442 63.33 169.442 63.55C169.442 63.8 169.432 64.18 169.422 64.69C169.402 65.21 169.402 65.59 169.402 65.84C169.402 66.03 169.422 66.16 169.472 66.24C169.522 66.32 169.612 66.35 169.752 66.35C169.802 66.35 169.872 66.34 169.962 66.32ZM168.592 64.33C168.532 64.37 168.462 64.41 168.402 64.45C168.332 64.48 168.242 64.51 168.142 64.53C168.042 64.55 167.972 64.56 167.932 64.57C167.892 64.58 167.812 64.59 167.672 64.61C167.532 64.63 167.452 64.64 167.452 64.64C167.242 64.66 167.102 64.68 167.042 64.69C166.982 64.7 166.862 64.73 166.682 64.78C166.502 64.82 166.382 64.88 166.312 64.94C166.232 65 166.162 65.08 166.092 65.2C166.022 65.32 165.992 65.46 165.992 65.62C165.992 65.88 166.082 66.09 166.262 66.25C166.442 66.4 166.702 66.48 167.022 66.48C167.422 66.48 167.792 66.36 168.112 66.12C168.432 65.88 168.592 65.59 168.592 65.27V64.33ZM172.973 61.84V62.54H171.943V65.55C171.943 65.72 171.943 65.83 171.943 65.88C171.943 65.94 171.963 66.01 172.003 66.1C172.033 66.19 172.093 66.25 172.173 66.27C172.253 66.3 172.363 66.31 172.513 66.31C172.633 66.31 172.793 66.3 172.973 66.28V67.01C172.733 67.04 172.513 67.05 172.323 67.05C172.083 67.05 171.883 67.03 171.723 66.97C171.563 66.92 171.433 66.86 171.353 66.79C171.273 66.73 171.213 66.61 171.173 66.44C171.133 66.27 171.103 66.13 171.103 66.01C171.093 65.89 171.093 65.7 171.093 65.42V65.38V65.33V65.28V62.54H170.223V61.84H171.093V60.31H171.943V61.84H172.973ZM174.817 59.88V60.92H173.957V59.88H174.817ZM174.817 61.84V67H173.957V61.84H174.817ZM178.394 61.69C179.174 61.69 179.774 61.93 180.214 62.41C180.644 62.88 180.864 63.54 180.864 64.39C180.864 65.27 180.644 65.95 180.214 66.43C179.774 66.92 179.164 67.16 178.384 67.16C177.594 67.16 176.974 66.92 176.534 66.44C176.084 65.96 175.864 65.3 175.864 64.44C175.864 63.6 176.084 62.93 176.544 62.43C176.994 61.94 177.614 61.69 178.394 61.69ZM178.374 62.41C177.874 62.41 177.474 62.59 177.184 62.95C176.884 63.32 176.744 63.81 176.744 64.42C176.744 65.06 176.884 65.55 177.174 65.91C177.464 66.27 177.874 66.44 178.394 66.44C178.894 66.44 179.284 66.26 179.564 65.9C179.844 65.54 179.994 65.05 179.994 64.41C179.994 63.8 179.844 63.31 179.554 62.95C179.264 62.59 178.874 62.41 178.374 62.41ZM182.676 61.84V62.64C183.096 62.02 183.686 61.7 184.436 61.7C185.036 61.7 185.476 61.86 185.746 62.18C186.016 62.5 186.156 62.96 186.156 63.57V67H185.306V63.96C185.306 63.71 185.296 63.51 185.276 63.37C185.256 63.23 185.216 63.07 185.156 62.91C185.086 62.75 184.976 62.63 184.816 62.55C184.656 62.48 184.446 62.44 184.196 62.44C183.216 62.44 182.726 63.06 182.726 64.3V67H181.876V61.84H182.676Z" fill="black"/>
<path d="M128.78 120.88L131.56 128H130.51L129.72 125.82H126.73L125.92 128H124.92L127.72 120.88H128.78ZM129.44 125.07L128.23 121.78L127 125.07H129.44ZM134.814 122.72L134.804 123.61C134.744 123.6 134.674 123.6 134.584 123.6C134.314 123.6 134.074 123.64 133.874 123.72C133.674 123.8 133.524 123.91 133.404 124.04C133.284 124.18 133.194 124.34 133.114 124.54C133.044 124.74 132.994 124.94 132.974 125.14C132.954 125.34 132.944 125.57 132.944 125.82V128H132.094V122.84H132.904V123.95C133.244 123.13 133.874 122.72 134.814 122.72ZM139.719 126.12C139.639 126.74 139.409 127.24 139.009 127.6C138.609 127.97 138.099 128.15 137.459 128.15C136.679 128.15 136.079 127.91 135.649 127.43C135.229 126.95 135.009 126.3 135.009 125.49C135.009 124.63 135.239 123.95 135.679 123.45C136.129 122.95 136.729 122.69 137.489 122.69C138.129 122.69 138.629 122.85 139.009 123.17C139.389 123.49 139.619 123.94 139.679 124.53H138.799C138.649 123.78 138.219 123.41 137.509 123.41C137.009 123.41 136.619 123.59 136.339 123.95C136.049 124.31 135.909 124.81 135.909 125.43C135.909 126.05 136.039 126.55 136.319 126.91C136.589 127.27 136.969 127.45 137.449 127.45C137.829 127.45 138.149 127.33 138.389 127.11C138.629 126.88 138.789 126.55 138.859 126.12H139.719ZM141.5 120.88V123.57C141.88 123 142.44 122.71 143.19 122.71C144.35 122.71 144.93 123.3 144.93 124.47V128H144.08V124.67C144.08 124.28 143.99 123.98 143.83 123.77C143.67 123.56 143.37 123.45 142.95 123.45C142.43 123.45 142.05 123.62 141.83 123.95C141.61 124.29 141.5 124.76 141.5 125.38V128H140.65V120.88H141.5ZM147.106 120.88V121.92H146.246V120.88H147.106ZM147.106 122.84V128H146.246V122.84H147.106ZM150.633 122.84V123.54H149.603V126.55C149.603 126.72 149.603 126.83 149.603 126.88C149.603 126.94 149.623 127.01 149.663 127.1C149.693 127.19 149.753 127.25 149.833 127.27C149.913 127.3 150.023 127.31 150.173 127.31C150.293 127.31 150.453 127.3 150.633 127.28V128.01C150.393 128.04 150.173 128.05 149.983 128.05C149.743 128.05 149.543 128.03 149.383 127.97C149.223 127.92 149.093 127.86 149.013 127.79C148.933 127.73 148.873 127.61 148.833 127.44C148.793 127.27 148.763 127.13 148.763 127.01C148.753 126.89 148.753 126.7 148.753 126.42V126.38V126.33V126.28V123.54H147.883V122.84H148.753V121.31H149.603V122.84H150.633ZM155.987 126.37C155.728 127.57 154.978 128.17 153.738 128.17C152.978 128.17 152.378 127.94 151.948 127.46C151.518 126.99 151.308 126.33 151.308 125.49C151.308 124.66 151.528 123.99 151.968 123.47C152.407 122.95 152.988 122.69 153.708 122.69C154.498 122.69 155.088 122.96 155.468 123.5C155.848 124.04 156.048 124.71 156.048 125.53V125.65H152.168L152.158 125.71C152.158 126.26 152.298 126.69 152.588 127C152.868 127.32 153.268 127.47 153.768 127.47C154.138 127.47 154.428 127.39 154.648 127.21C154.868 127.04 155.038 126.76 155.158 126.37H155.987ZM155.168 124.96C155.128 124.47 154.978 124.09 154.718 123.81C154.458 123.53 154.108 123.39 153.688 123.39C153.268 123.39 152.928 123.53 152.658 123.81C152.378 124.09 152.218 124.48 152.168 124.96H155.168ZM161.389 126.12C161.309 126.74 161.079 127.24 160.679 127.6C160.279 127.97 159.769 128.15 159.129 128.15C158.349 128.15 157.749 127.91 157.319 127.43C156.899 126.95 156.679 126.3 156.679 125.49C156.679 124.63 156.909 123.95 157.349 123.45C157.799 122.95 158.399 122.69 159.159 122.69C159.799 122.69 160.299 122.85 160.679 123.17C161.059 123.49 161.289 123.94 161.349 124.53H160.469C160.319 123.78 159.889 123.41 159.179 123.41C158.679 123.41 158.289 123.59 158.009 123.95C157.719 124.31 157.579 124.81 157.579 125.43C157.579 126.05 157.709 126.55 157.989 126.91C158.259 127.27 158.639 127.45 159.119 127.45C159.499 127.45 159.819 127.33 160.059 127.11C160.299 126.88 160.459 126.55 160.529 126.12H161.389ZM164.53 122.84V123.54H163.5V126.55C163.5 126.72 163.5 126.83 163.5 126.88C163.5 126.94 163.52 127.01 163.56 127.1C163.59 127.19 163.65 127.25 163.73 127.27C163.81 127.3 163.92 127.31 164.07 127.31C164.19 127.31 164.35 127.3 164.53 127.28V128.01C164.29 128.04 164.07 128.05 163.88 128.05C163.64 128.05 163.44 128.03 163.28 127.97C163.12 127.92 162.99 127.86 162.91 127.79C162.83 127.73 162.77 127.61 162.73 127.44C162.69 127.27 162.66 127.13 162.66 127.01C162.65 126.89 162.65 126.7 162.65 126.42V126.38V126.33V126.28V123.54H161.78V122.84H162.65V121.31H163.5V122.84H164.53ZM169.754 122.84L169.744 128H168.954V127.19C168.514 127.83 167.924 128.14 167.174 128.14C166.634 128.14 166.204 127.99 165.904 127.69C165.604 127.39 165.454 126.96 165.454 126.39V122.84H166.304V126.16C166.304 126.57 166.384 126.88 166.544 127.09C166.704 127.3 166.984 127.4 167.394 127.4C168.394 127.4 168.904 126.78 168.904 125.54V122.84H169.754ZM173.721 122.72L173.711 123.61C173.651 123.6 173.581 123.6 173.491 123.6C173.221 123.6 172.981 123.64 172.781 123.72C172.581 123.8 172.431 123.91 172.311 124.04C172.191 124.18 172.101 124.34 172.021 124.54C171.951 124.74 171.901 124.94 171.881 125.14C171.861 125.34 171.851 125.57 171.851 125.82V128H171.001V122.84H171.811V123.95C172.151 123.13 172.781 122.72 173.721 122.72ZM178.595 126.37C178.335 127.57 177.585 128.17 176.345 128.17C175.585 128.17 174.985 127.94 174.555 127.46C174.125 126.99 173.915 126.33 173.915 125.49C173.915 124.66 174.135 123.99 174.575 123.47C175.015 122.95 175.595 122.69 176.315 122.69C177.105 122.69 177.695 122.96 178.075 123.5C178.455 124.04 178.655 124.71 178.655 125.53V125.65H174.775L174.765 125.71C174.765 126.26 174.905 126.69 175.195 127C175.475 127.32 175.875 127.47 176.375 127.47C176.745 127.47 177.035 127.39 177.255 127.21C177.475 127.04 177.645 126.76 177.765 126.37H178.595ZM177.775 124.96C177.735 124.47 177.585 124.09 177.325 123.81C177.065 123.53 176.715 123.39 176.295 123.39C175.875 123.39 175.535 123.53 175.265 123.81C174.985 124.09 174.825 124.48 174.775 124.96H177.775Z" fill="black"/>
<path d="M144.73 186.88V187.7H142.34V194H141.4V187.7H139.01V186.88H144.73ZM148.839 193.32V193.99C148.659 194.05 148.469 194.09 148.259 194.09C147.769 194.09 147.519 193.83 147.509 193.33C147.019 193.87 146.399 194.15 145.639 194.15C145.129 194.15 144.729 194.02 144.429 193.76C144.129 193.5 143.989 193.14 143.989 192.69C143.989 191.77 144.599 191.23 145.819 191.08C145.899 191.06 146.009 191.05 146.169 191.04C146.749 190.97 147.099 190.89 147.239 190.81C147.389 190.7 147.469 190.52 147.469 190.26C147.469 189.69 147.079 189.41 146.299 189.41C145.899 189.41 145.589 189.49 145.389 189.65C145.179 189.81 145.059 190.08 145.019 190.46H144.189C144.199 189.9 144.399 189.47 144.779 189.17C145.159 188.86 145.679 188.71 146.349 188.71C147.069 188.71 147.609 188.87 147.969 189.21C148.079 189.31 148.159 189.45 148.219 189.63C148.269 189.8 148.299 189.94 148.309 190.05C148.309 190.16 148.319 190.33 148.319 190.55C148.319 190.8 148.309 191.18 148.299 191.69C148.279 192.21 148.279 192.59 148.279 192.84C148.279 193.03 148.299 193.16 148.349 193.24C148.399 193.32 148.489 193.35 148.629 193.35C148.679 193.35 148.749 193.34 148.839 193.32ZM147.469 191.33C147.409 191.37 147.339 191.41 147.279 191.45C147.209 191.48 147.119 191.51 147.019 191.53C146.919 191.55 146.849 191.56 146.809 191.57C146.769 191.58 146.689 191.59 146.549 191.61C146.409 191.63 146.329 191.64 146.329 191.64C146.119 191.66 145.979 191.68 145.919 191.69C145.859 191.7 145.739 191.73 145.559 191.78C145.379 191.82 145.259 191.88 145.189 191.94C145.109 192 145.039 192.08 144.969 192.2C144.899 192.32 144.869 192.46 144.869 192.62C144.869 192.88 144.959 193.09 145.139 193.25C145.319 193.4 145.579 193.48 145.899 193.48C146.299 193.48 146.669 193.36 146.989 193.12C147.309 192.88 147.469 192.59 147.469 192.27V191.33ZM153.47 190.34H152.62C152.56 189.72 152.14 189.4 151.36 189.4C151.03 189.4 150.77 189.47 150.59 189.59C150.4 189.72 150.31 189.89 150.31 190.1C150.31 190.16 150.31 190.22 150.33 190.28C150.34 190.34 150.36 190.39 150.4 190.43C150.44 190.47 150.47 190.51 150.5 190.54C150.53 190.58 150.58 190.61 150.65 190.64C150.72 190.67 150.77 190.69 150.81 190.71C150.85 190.73 150.91 190.76 151.01 190.78C151.11 190.8 151.18 190.82 151.22 190.83C151.26 190.84 151.33 190.86 151.45 190.88C151.57 190.91 151.64 190.93 151.68 190.93C151.92 190.99 152.11 191.03 152.23 191.06C152.35 191.1 152.52 191.16 152.74 191.25C152.96 191.34 153.12 191.43 153.24 191.53C153.35 191.63 153.45 191.76 153.54 191.93C153.63 192.1 153.68 192.29 153.68 192.5C153.68 193 153.48 193.41 153.09 193.71C152.7 194.01 152.18 194.16 151.54 194.16C150.84 194.16 150.3 194.01 149.92 193.7C149.54 193.4 149.34 192.95 149.32 192.37H150.16C150.2 193.1 150.67 193.46 151.56 193.46C151.94 193.46 152.24 193.39 152.47 193.23C152.7 193.07 152.82 192.86 152.82 192.6C152.82 192.43 152.76 192.29 152.64 192.17C152.52 192.06 152.38 191.98 152.24 191.93C152.09 191.88 151.88 191.82 151.61 191.75C151.57 191.75 151.54 191.74 151.52 191.73C151.46 191.72 151.33 191.69 151.13 191.65C150.93 191.61 150.79 191.57 150.71 191.54C150.62 191.52 150.49 191.48 150.33 191.42C150.17 191.36 150.05 191.3 149.97 191.24C149.89 191.18 149.8 191.1 149.7 191C149.6 190.9 149.54 190.79 149.5 190.66C149.46 190.53 149.44 190.38 149.44 190.21C149.44 189.75 149.61 189.38 149.97 189.1C150.33 188.83 150.81 188.69 151.41 188.69C152.01 188.69 152.51 188.84 152.89 189.12C153.27 189.41 153.47 189.82 153.47 190.34ZM158.98 188.84L156.93 190.71L159.13 194H158.05L156.28 191.3L155.47 192.05V194H154.64V186.88H155.47V191.09L157.84 188.84H158.98ZM163.656 190.34H162.806C162.746 189.72 162.326 189.4 161.546 189.4C161.216 189.4 160.956 189.47 160.776 189.59C160.586 189.72 160.496 189.89 160.496 190.1C160.496 190.16 160.496 190.22 160.516 190.28C160.526 190.34 160.546 190.39 160.586 190.43C160.626 190.47 160.656 190.51 160.686 190.54C160.716 190.58 160.766 190.61 160.836 190.64C160.906 190.67 160.956 190.69 160.996 190.71C161.036 190.73 161.096 190.76 161.196 190.78C161.296 190.8 161.366 190.82 161.406 190.83C161.446 190.84 161.516 190.86 161.636 190.88C161.756 190.91 161.826 190.93 161.866 190.93C162.106 190.99 162.296 191.03 162.416 191.06C162.536 191.1 162.706 191.16 162.926 191.25C163.146 191.34 163.306 191.43 163.426 191.53C163.536 191.63 163.636 191.76 163.726 191.93C163.816 192.1 163.866 192.29 163.866 192.5C163.866 193 163.666 193.41 163.276 193.71C162.886 194.01 162.366 194.16 161.726 194.16C161.026 194.16 160.486 194.01 160.106 193.7C159.726 193.4 159.526 192.95 159.506 192.37H160.346C160.386 193.1 160.856 193.46 161.746 193.46C162.126 193.46 162.426 193.39 162.656 193.23C162.886 193.07 163.006 192.86 163.006 192.6C163.006 192.43 162.946 192.29 162.826 192.17C162.706 192.06 162.566 191.98 162.426 191.93C162.276 191.88 162.066 191.82 161.796 191.75C161.756 191.75 161.726 191.74 161.706 191.73C161.646 191.72 161.516 191.69 161.316 191.65C161.116 191.61 160.976 191.57 160.896 191.54C160.806 191.52 160.676 191.48 160.516 191.42C160.356 191.36 160.236 191.3 160.156 191.24C160.076 191.18 159.986 191.1 159.886 191C159.786 190.9 159.726 190.79 159.686 190.66C159.646 190.53 159.626 190.38 159.626 190.21C159.626 189.75 159.796 189.38 160.156 189.1C160.516 188.83 160.996 188.69 161.596 188.69C162.196 188.69 162.696 188.84 163.076 189.12C163.456 189.41 163.656 189.82 163.656 190.34Z" fill="black"/>
</g>
<defs>
<filter id="filter0_d_11_1004" x="100" y="176" width="102" height="53" filterUnits="userSpaceOnUse" color-interpolation-filters="sRGB">
<feFlood flood-opacity="0" result="BackgroundImageFix"/>
<feColorMatrix in="SourceAlpha" type="matrix" values="0 0 0 0 0 0 0 0 0 0 0 0 0 0 0 0 0 0 127 0" result="hardAlpha"/>
<feOffset dy="4"/>
<feGaussianBlur stdDeviation="2"/>
<feComposite in2="hardAlpha" operator="out"/>
<feColorMatrix type="matrix" values="0 0 0 0 0 0 0 0 0 0 0 0 0 0 0 0 0 0 0.25 0"/>
<feBlend mode="normal" in2="BackgroundImageFix" result="effect1_dropShadow_11_1004"/>
<feBlend mode="normal" in="SourceGraphic" in2="effect1_dropShadow_11_1004" result="shape"/>
</filter>
<filter id="filter1_d_11_1004" x="97" y="173" width="102" height="53" filterUnits="userSpaceOnUse" color-interpolation-filters="sRGB">
<feFlood flood-opacity="0" result="BackgroundImageFix"/>
<feColorMatrix in="SourceAlpha" type="matrix" values="0 0 0 0 0 0 0 0 0 0 0 0 0 0 0 0 0 0 127 0" result="hardAlpha"/>
<feOffset dy="4"/>
<feGaussianBlur stdDeviation="2"/>
<feComposite in2="hardAlpha" operator="out"/>
<feColorMatrix type="matrix" values="0 0 0 0 0 0 0 0 0 0 0 0 0 0 0 0 0 0 0.25 0"/>
<feBlend mode="normal" in2="BackgroundImageFix" result="effect1_dropShadow_11_1004"/>
<feBlend mode="normal" in="SourceGraphic" in2="effect1_dropShadow_11_1004" result="shape"/>
</filter>
<filter id="filter2_d_11_1004" x="62" y="11" width="85" height="230" filterUnits="userSpaceOnUse" color-interpolation-filters="sRGB">
<feFlood flood-opacity="0" result="BackgroundImageFix"/>
<feColorMatrix in="SourceAlpha" type="matrix" values="0 0 0 0 0 0 0 0 0 0 0 0 0 0 0 0 0 0 127 0" result="hardAlpha"/>
<feOffset dy="4"/>
<feGaussianBlur stdDeviation="2"/>
<feComposite in2="hardAlpha" operator="out"/>
<feColorMatrix type="matrix" values="0 0 0 0 0 0 0 0 0 0 0 0 0 0 0 0 0 0 0.25 0"/>
<feBlend mode="normal" in2="BackgroundImageFix" result="effect1_dropShadow_11_1004"/>
<feBlend mode="normal" in="SourceGraphic" in2="effect1_dropShadow_11_1004" result="shape"/>
</filter>
<filter id="filter3_d_11_1004" x="93" y="36" width="102" height="53" filterUnits="userSpaceOnUse" color-interpolation-filters="sRGB">
<feFlood flood-opacity="0" result="BackgroundImageFix"/>
<feColorMatrix in="SourceAlpha" type="matrix" values="0 0 0 0 0 0 0 0 0 0 0 0 0 0 0 0 0 0 127 0" result="hardAlpha"/>
<feOffset dy="4"/>
<feGaussianBlur stdDeviation="2"/>
<feComposite in2="hardAlpha" operator="out"/>
<feColorMatrix type="matrix" values="0 0 0 0 0 0 0 0 0 0 0 0 0 0 0 0 0 0 0.25 0"/>
<feBlend mode="normal" in2="BackgroundImageFix" result="effect1_dropShadow_11_1004"/>
<feBlend mode="normal" in="SourceGraphic" in2="effect1_dropShadow_11_1004" result="shape"/>
</filter>
<filter id="filter4_d_11_1004" x="93" y="103" width="102" height="53" filterUnits="userSpaceOnUse" color-interpolation-filters="sRGB">
<feFlood flood-opacity="0" result="BackgroundImageFix"/>
<feColorMatrix in="SourceAlpha" type="matrix" values="0 0 0 0 0 0 0 0 0 0 0 0 0 0 0 0 0 0 127 0" result="hardAlpha"/>
<feOffset dy="4"/>
<feGaussianBlur stdDeviation="2"/>
<feComposite in2="hardAlpha" operator="out"/>
<feColorMatrix type="matrix" values="0 0 0 0 0 0 0 0 0 0 0 0 0 0 0 0 0 0 0.25 0"/>
<feBlend mode="normal" in2="BackgroundImageFix" result="effect1_dropShadow_11_1004"/>
<feBlend mode="normal" in="SourceGraphic" in2="effect1_dropShadow_11_1004" result="shape"/>
</filter>
<filter id="filter5_d_11_1004" x="93" y="169" width="102" height="53" filterUnits="userSpaceOnUse" color-interpolation-filters="sRGB">
<feFlood flood-opacity="0" result="BackgroundImageFix"/>
<feColorMatrix in="SourceAlpha" type="matrix" values="0 0 0 0 0 0 0 0 0 0 0 0 0 0 0 0 0 0 127 0" result="hardAlpha"/>
<feOffset dy="4"/>
<feGaussianBlur stdDeviation="2"/>
<feComposite in2="hardAlpha" operator="out"/>
<feColorMatrix type="matrix" values="0 0 0 0 0 0 0 0 0 0 0 0 0 0 0 0 0 0 0.25 0"/>
<feBlend mode="normal" in2="BackgroundImageFix" result="effect1_dropShadow_11_1004"/>
<feBlend mode="normal" in="SourceGraphic" in2="effect1_dropShadow_11_1004" result="shape"/>
</filter>
<clipPath id="clip0_11_1004">
<rect width="198" height="270" fill="white"/>
</clipPath>
</defs>
</svg>
