<svg width="32" height="32" viewBox="0 0 32 32" fill="none" xmlns="http://www.w3.org/2000/svg">
<ellipse cx="3.46749" cy="9.75873" rx="0.594427" ry="0.594427" fill="#F0F0F0"/>
<ellipse cx="3.46749" cy="13.2263" rx="0.594427" ry="0.594427" fill="#F0F0F0"/>
<circle cx="3.46749" cy="16.6935" r="0.594427" fill="#F0F0F0"/>
<ellipse cx="3.46749" cy="20.1611" rx="0.594427" ry="0.594427" fill="#F0F0F0"/>
<circle cx="3.46749" cy="23.6286" r="0.594427" fill="#F0F0F0"/>
<ellipse cx="5.94426" cy="8.0248" rx="0.693498" ry="0.693498" fill="#F0F0F0"/>
<ellipse opacity="0.25" cx="5.94426" cy="8.0248" rx="0.693498" ry="0.693498" fill="#0066FF"/>
<ellipse cx="5.94426" cy="11.4923" rx="0.693498" ry="0.693498" fill="#F0F0F0"/>
<ellipse opacity="0.25" cx="5.94426" cy="11.4923" rx="0.693498" ry="0.693498" fill="#0066FF"/>
<ellipse cx="5.94427" cy="14.9599" rx="0.594427" ry="0.594427" fill="#F0F0F0"/>
<ellipse cx="5.94427" cy="18.4274" rx="0.594427" ry="0.594427" fill="#F0F0F0"/>
<ellipse cx="5.94427" cy="21.895" rx="0.594427" ry="0.594427" fill="#F0F0F0"/>
<ellipse cx="5.94427" cy="25.3625" rx="0.594427" ry="0.594427" fill="#F0F0F0"/>
<ellipse cx="8.42105" cy="6.29115" rx="0.693498" ry="0.693498" fill="#F0F0F0"/>
<ellipse opacity="0.25" cx="8.42105" cy="6.29115" rx="0.693498" ry="0.693498" fill="#0066FF"/>
<ellipse cx="8.42105" cy="9.75865" rx="1.23839" ry="1.23839" fill="#F0F0F0"/>
<ellipse cx="8.42105" cy="9.75865" rx="1.23839" ry="1.23839" fill="#0066FF"/>
<ellipse cx="8.42105" cy="13.2262" rx="0.693498" ry="0.693499" fill="#F0F0F0"/>
<ellipse opacity="0.25" cx="8.42105" cy="13.2262" rx="0.693498" ry="0.693499" fill="#0066FF"/>
<ellipse cx="8.42105" cy="16.6935" rx="0.693498" ry="0.693498" fill="#F0F0F0"/>
<ellipse opacity="0.25" cx="8.42105" cy="16.6935" rx="0.693498" ry="0.693498" fill="#0066FF"/>
<ellipse cx="8.42106" cy="20.1611" rx="0.594427" ry="0.594427" fill="#F0F0F0"/>
<ellipse cx="8.42106" cy="23.6286" rx="0.594427" ry="0.594427" fill="#F0F0F0"/>
<ellipse cx="8.42106" cy="27.0961" rx="0.594427" ry="0.594427" fill="#F0F0F0"/>
<circle cx="10.8978" cy="4.55732" r="0.594427" fill="#F0F0F0"/>
<circle cx="10.8978" cy="8.02465" r="0.990712" fill="#F0F0F0"/>
<circle opacity="0.75" cx="10.8978" cy="8.02465" r="0.990712" fill="#0066FF"/>
<circle cx="10.8978" cy="11.4923" r="1.23839" fill="#F0F0F0"/>
<circle cx="10.8978" cy="11.4923" r="1.23839" fill="#0066FF"/>
<ellipse cx="10.8978" cy="14.9597" rx="0.990712" ry="0.990712" fill="#F0F0F0"/>
<ellipse opacity="0.75" cx="10.8978" cy="14.9597" rx="0.990712" ry="0.990712" fill="#0066FF"/>
<circle cx="10.8978" cy="18.4273" r="0.842105" fill="#F0F0F0"/>
<circle opacity="0.5" cx="10.8978" cy="18.4273" r="0.842105" fill="#0066FF"/>
<circle cx="10.8978" cy="21.8949" r="0.693498" fill="#F0F0F0"/>
<circle opacity="0.25" cx="10.8978" cy="21.8949" r="0.693498" fill="#0066FF"/>
<circle cx="10.8978" cy="25.3625" r="0.594427" fill="#F0F0F0"/>
<circle cx="10.8978" cy="28.8298" r="0.594427" fill="#F0F0F0"/>
<circle cx="13.3746" cy="30.5637" r="0.594427" fill="#F0F0F0"/>
<circle cx="13.3746" cy="6.2912" r="0.594427" fill="#F0F0F0"/>
<ellipse cx="13.3746" cy="9.75868" rx="0.693498" ry="0.693499" fill="#F0F0F0"/>
<ellipse opacity="0.25" cx="13.3746" cy="9.75868" rx="0.693498" ry="0.693499" fill="#0066FF"/>
<ellipse cx="13.3746" cy="13.2261" rx="0.990712" ry="0.990712" fill="#F0F0F0"/>
<ellipse opacity="0.75" cx="13.3746" cy="13.2261" rx="0.990712" ry="0.990712" fill="#0066FF"/>
<circle cx="13.3746" cy="16.6935" r="1.23839" fill="#F0F0F0"/>
<circle cx="13.3746" cy="16.6935" r="1.23839" fill="#0066FF"/>
<ellipse cx="13.3746" cy="20.161" rx="1.23839" ry="1.23839" fill="#F0F0F0"/>
<ellipse cx="13.3746" cy="20.161" rx="1.23839" ry="1.23839" fill="#0066FF"/>
<circle cx="13.3746" cy="23.6284" r="0.990712" fill="#F0F0F0"/>
<circle opacity="0.75" cx="13.3746" cy="23.6284" r="0.990712" fill="#0066FF"/>
<circle cx="13.3746" cy="27.0961" r="0.693498" fill="#F0F0F0"/>
<circle opacity="0.25" cx="13.3746" cy="27.0961" r="0.693498" fill="#0066FF"/>
<circle cx="15.8514" cy="4.55732" r="0.594427" fill="#F0F0F0"/>
<circle cx="15.8514" cy="8.02485" r="0.594427" fill="#F0F0F0"/>
<circle cx="15.8514" cy="11.4924" r="0.594427" fill="#F0F0F0"/>
<ellipse cx="15.8514" cy="14.9599" rx="0.594427" ry="0.594427" fill="#F0F0F0"/>
<circle cx="15.8514" cy="18.4273" r="0.842105" fill="#F0F0F0"/>
<circle opacity="0.5" cx="15.8514" cy="18.4273" r="0.842105" fill="#0066FF"/>
<circle cx="15.8514" cy="21.8948" r="0.990712" fill="#F0F0F0"/>
<circle opacity="0.75" cx="15.8514" cy="21.8948" r="0.990712" fill="#0066FF"/>
<circle cx="15.8514" cy="25.3624" r="1.23839" fill="#F0F0F0"/>
<circle cx="15.8514" cy="25.3624" r="1.23839" fill="#0066FF"/>
<circle cx="15.8514" cy="28.8296" r="0.990712" fill="#F0F0F0"/>
<circle opacity="0.75" cx="15.8514" cy="28.8296" r="0.990712" fill="#0066FF"/>
<ellipse cx="18.3282" cy="30.5637" rx="0.594428" ry="0.594427" fill="#F0F0F0"/>
<ellipse cx="18.3282" cy="6.2912" rx="0.594428" ry="0.594427" fill="#F0F0F0"/>
<ellipse cx="13.3746" cy="2.82368" rx="0.594427" ry="0.594427" fill="#F0F0F0"/>
<ellipse cx="18.3282" cy="2.82368" rx="0.594428" ry="0.594427" fill="#F0F0F0"/>
<ellipse cx="18.3282" cy="9.75873" rx="0.594428" ry="0.594427" fill="#F0F0F0"/>
<ellipse cx="18.3282" cy="13.2263" rx="0.594428" ry="0.594427" fill="#F0F0F0"/>
<ellipse cx="18.3282" cy="16.6935" rx="0.693499" ry="0.693498" fill="#F0F0F0"/>
<ellipse opacity="0.25" cx="18.3282" cy="16.6935" rx="0.693499" ry="0.693498" fill="#0066FF"/>
<ellipse cx="18.3282" cy="20.161" rx="0.842106" ry="0.842104" fill="#F0F0F0"/>
<ellipse opacity="0.5" cx="18.3282" cy="20.161" rx="0.842106" ry="0.842104" fill="#0066FF"/>
<ellipse cx="18.3282" cy="23.6285" rx="1.23839" ry="1.23839" fill="#F0F0F0"/>
<ellipse cx="18.3282" cy="23.6285" rx="1.23839" ry="1.23839" fill="#0066FF"/>
<ellipse cx="18.3282" cy="27.0961" rx="0.693499" ry="0.693498" fill="#F0F0F0"/>
<ellipse opacity="0.25" cx="18.3282" cy="27.0961" rx="0.693499" ry="0.693498" fill="#0066FF"/>
<ellipse cx="20.805" cy="4.55732" rx="0.594427" ry="0.594427" fill="#F0F0F0"/>
<ellipse cx="20.8049" cy="8.02472" rx="0.842104" ry="0.842105" fill="#F0F0F0"/>
<ellipse opacity="0.5" cx="20.8049" cy="8.02472" rx="0.842104" ry="0.842105" fill="#0066FF"/>
<ellipse cx="20.805" cy="11.4922" rx="0.990711" ry="0.990712" fill="#F0F0F0"/>
<ellipse opacity="0.75" cx="20.805" cy="11.4922" rx="0.990711" ry="0.990712" fill="#0066FF"/>
<ellipse cx="20.805" cy="14.9597" rx="0.990711" ry="0.990712" fill="#F0F0F0"/>
<ellipse opacity="0.75" cx="20.805" cy="14.9597" rx="0.990711" ry="0.990712" fill="#0066FF"/>
<ellipse cx="20.8049" cy="18.4274" rx="1.23839" ry="1.23839" fill="#F0F0F0"/>
<ellipse cx="20.8049" cy="18.4274" rx="1.23839" ry="1.23839" fill="#0066FF"/>
<ellipse cx="20.8049" cy="21.8948" rx="0.842104" ry="0.842105" fill="#F0F0F0"/>
<ellipse opacity="0.5" cx="20.8049" cy="21.8948" rx="0.842104" ry="0.842105" fill="#0066FF"/>
<ellipse cx="20.805" cy="25.3625" rx="0.594427" ry="0.594427" fill="#F0F0F0"/>
<ellipse cx="20.805" cy="28.8298" rx="0.594427" ry="0.594427" fill="#F0F0F0"/>
<ellipse cx="23.2817" cy="6.29115" rx="0.693499" ry="0.693498" fill="#F0F0F0"/>
<ellipse opacity="0.25" cx="23.2817" cy="6.29115" rx="0.693499" ry="0.693498" fill="#0066FF"/>
<ellipse cx="23.2817" cy="9.75865" rx="1.23839" ry="1.23839" fill="#F0F0F0"/>
<ellipse cx="23.2817" cy="9.75865" rx="1.23839" ry="1.23839" fill="#0066FF"/>
<ellipse cx="23.2817" cy="13.2262" rx="1.23839" ry="1.23839" fill="#F0F0F0"/>
<ellipse cx="23.2817" cy="13.2262" rx="1.23839" ry="1.23839" fill="#0066FF"/>
<ellipse cx="23.2817" cy="16.6933" rx="0.990713" ry="0.990712" fill="#F0F0F0"/>
<ellipse opacity="0.75" cx="23.2817" cy="16.6933" rx="0.990713" ry="0.990712" fill="#0066FF"/>
<ellipse cx="23.2817" cy="20.161" rx="0.693499" ry="0.693498" fill="#F0F0F0"/>
<ellipse opacity="0.25" cx="23.2817" cy="20.161" rx="0.693499" ry="0.693498" fill="#0066FF"/>
<ellipse cx="23.2817" cy="23.6286" rx="0.594428" ry="0.594427" fill="#F0F0F0"/>
<ellipse cx="23.2817" cy="27.0961" rx="0.594428" ry="0.594427" fill="#F0F0F0"/>
<circle cx="25.7585" cy="8.02472" r="0.842105" fill="#F0F0F0"/>
<circle opacity="0.5" cx="25.7585" cy="8.02472" r="0.842105" fill="#0066FF"/>
<circle cx="25.7585" cy="11.4923" r="0.842105" fill="#F0F0F0"/>
<circle opacity="0.5" cx="25.7585" cy="11.4923" r="0.842105" fill="#0066FF"/>
<ellipse cx="25.7585" cy="14.9599" rx="0.693498" ry="0.693499" fill="#F0F0F0"/>
<ellipse opacity="0.25" cx="25.7585" cy="14.9599" rx="0.693498" ry="0.693499" fill="#0066FF"/>
<circle cx="25.7585" cy="18.4274" r="0.594427" fill="#F0F0F0"/>
<circle cx="25.7585" cy="21.895" r="0.594427" fill="#F0F0F0"/>
<circle cx="25.7585" cy="25.3625" r="0.594427" fill="#F0F0F0"/>
<ellipse cx="28.2353" cy="9.75873" rx="0.594427" ry="0.594427" fill="#F0F0F0"/>
<ellipse cx="28.2353" cy="13.2263" rx="0.594427" ry="0.594427" fill="#F0F0F0"/>
<circle cx="28.2353" cy="16.6935" r="0.594427" fill="#F0F0F0"/>
<ellipse cx="28.2353" cy="20.1611" rx="0.594427" ry="0.594427" fill="#F0F0F0"/>
<circle cx="28.2353" cy="23.6286" r="0.594427" fill="#F0F0F0"/>
</svg>
