<svg width="32" height="32" viewBox="0 0 32 32" fill="none" xmlns="http://www.w3.org/2000/svg">
<ellipse opacity="0.25" cx="5.94428" cy="8.0248" rx="0.693498" ry="0.693498" fill="white"/>
<ellipse opacity="0.25" cx="5.94428" cy="11.4923" rx="0.693498" ry="0.693498" fill="white"/>
<ellipse opacity="0.25" cx="8.42105" cy="6.29115" rx="0.693498" ry="0.693498" fill="white"/>
<ellipse cx="8.42105" cy="9.75865" rx="1.23839" ry="1.23839" fill="white"/>
<ellipse opacity="0.25" cx="8.42105" cy="13.2262" rx="0.693498" ry="0.693499" fill="white"/>
<ellipse opacity="0.25" cx="8.42105" cy="16.6935" rx="0.693498" ry="0.693498" fill="white"/>
<circle opacity="0.75" cx="10.8978" cy="8.02465" r="0.990712" fill="white"/>
<circle cx="10.8978" cy="11.4923" r="1.23839" fill="white"/>
<ellipse opacity="0.75" cx="10.8978" cy="14.9597" rx="0.990712" ry="0.990712" fill="white"/>
<circle opacity="0.5" cx="10.8978" cy="18.4273" r="0.842105" fill="white"/>
<circle opacity="0.25" cx="10.8978" cy="21.8949" r="0.693498" fill="white"/>
<ellipse opacity="0.25" cx="13.3746" cy="9.75868" rx="0.693498" ry="0.693499" fill="white"/>
<ellipse opacity="0.75" cx="13.3746" cy="13.2261" rx="0.990712" ry="0.990712" fill="white"/>
<circle cx="13.3746" cy="16.6935" r="1.23839" fill="white"/>
<ellipse cx="13.3746" cy="20.161" rx="1.23839" ry="1.23839" fill="white"/>
<circle opacity="0.75" cx="13.3746" cy="23.6284" r="0.990712" fill="white"/>
<circle opacity="0.25" cx="13.3746" cy="27.0961" r="0.693498" fill="white"/>
<circle opacity="0.5" cx="15.8514" cy="18.4273" r="0.842105" fill="white"/>
<circle opacity="0.75" cx="15.8514" cy="21.8948" r="0.990712" fill="white"/>
<circle cx="15.8514" cy="25.3624" r="1.23839" fill="white"/>
<circle opacity="0.75" cx="15.8514" cy="28.8296" r="0.990712" fill="white"/>
<ellipse opacity="0.25" cx="18.3282" cy="16.6935" rx="0.693499" ry="0.693498" fill="white"/>
<ellipse opacity="0.5" cx="18.3282" cy="20.161" rx="0.842106" ry="0.842104" fill="white"/>
<ellipse cx="18.3282" cy="23.6285" rx="1.23839" ry="1.23839" fill="white"/>
<ellipse opacity="0.25" cx="18.3282" cy="27.0961" rx="0.693499" ry="0.693498" fill="white"/>
<ellipse opacity="0.5" cx="20.805" cy="8.02472" rx="0.842104" ry="0.842105" fill="white"/>
<ellipse opacity="0.75" cx="20.805" cy="11.4922" rx="0.990711" ry="0.990712" fill="white"/>
<ellipse opacity="0.75" cx="20.805" cy="14.9597" rx="0.990711" ry="0.990712" fill="white"/>
<ellipse cx="20.805" cy="18.4274" rx="1.23839" ry="1.23839" fill="white"/>
<ellipse opacity="0.5" cx="20.805" cy="21.8948" rx="0.842104" ry="0.842105" fill="white"/>
<ellipse opacity="0.25" cx="23.2817" cy="6.29115" rx="0.693499" ry="0.693498" fill="white"/>
<ellipse cx="23.2817" cy="9.75865" rx="1.23839" ry="1.23839" fill="white"/>
<ellipse cx="23.2817" cy="13.2262" rx="1.23839" ry="1.23839" fill="white"/>
<ellipse opacity="0.75" cx="23.2817" cy="16.6933" rx="0.990713" ry="0.990712" fill="white"/>
<ellipse opacity="0.25" cx="23.2817" cy="20.161" rx="0.693499" ry="0.693498" fill="white"/>
<circle opacity="0.5" cx="25.7585" cy="8.02472" r="0.842105" fill="white"/>
<circle opacity="0.5" cx="25.7585" cy="11.4923" r="0.842105" fill="white"/>
<ellipse opacity="0.25" cx="25.7585" cy="14.9599" rx="0.693498" ry="0.693499" fill="white"/>
</svg>
